<?xml version="1.0" encoding="UTF-8" standalone="no"?>
<!-- Created with Inkscape (http://www.inkscape.org/) -->

<svg
   width="41.731998"
   height="41.731998"
   viewBox="0 0 41.731998 41.732"
   version="1.1"
   id="svg5"
   inkscape:version="1.1.1 (3bf5ae0d25, 2021-09-20)"
   sodipodi:docname="competitive-pricing-icon.svg"
   xmlns:inkscape="http://www.inkscape.org/namespaces/inkscape"
   xmlns:sodipodi="http://sodipodi.sourceforge.net/DTD/sodipodi-0.dtd"
   xmlns:xlink="http://www.w3.org/1999/xlink"
   xmlns="http://www.w3.org/2000/svg"
   xmlns:svg="http://www.w3.org/2000/svg">
  <sodipodi:namedview
     id="namedview7"
     pagecolor="#ffffff"
     bordercolor="#666666"
     borderopacity="1.0"
     inkscape:pageshadow="2"
     inkscape:pageopacity="0.0"
     inkscape:pagecheckerboard="0"
     inkscape:document-units="px"
     showgrid="false"
     showborder="true"
     units="px"
     inkscape:zoom="8.0000001"
     inkscape:cx="24.625"
     inkscape:cy="16.3125"
     inkscape:window-width="1920"
     inkscape:window-height="1017"
     inkscape:window-x="1912"
     inkscape:window-y="-8"
     inkscape:window-maximized="1"
     inkscape:current-layer="layer1"
     inkscape:snap-global="false"
     inkscape:snap-smooth-nodes="true"
     showguides="true"
     inkscape:guide-bbox="true"
     height="63.121px" />
  <defs
     id="defs2" />
  <g
     inkscape:label="Layer 1"
     inkscape:groupmode="layer"
     id="layer1">
    <g
       id="g891">
      <path
         id="path33604"
         style="fill:#d8ad4f;fill-opacity:1;stroke:#1a1a1a;stroke-width:0.5;stroke-linejoin:round;stroke-miterlimit:4;stroke-dasharray:none"
         d="m 31.17372,38.719638 c -1.47055,0.967069 -3.22574,-0.01031 -4.97214,0.434239 -1.7464,0.444514 -3.3953,2.327757 -5.33577,2.327757 -1.94047,0 -3.58937,-1.883243 -5.33576,-2.327757 C 13.78365,38.709362 12.0286,39.686633 10.5579,38.719638 9.08721,37.752641 9.22668,35.130298 7.91391,33.817548 6.60114,32.5048 3.97875,32.644506 3.01199,31.173726 2.04523,29.702944 3.02369,27.948065 2.57921,26.201582 2.13473,24.455098 0.25,22.80648 0.25,20.865815 0.25,18.925151 2.13473,17.276533 2.57921,15.530049 3.02369,13.783566 2.04519,12.028596 3.01199,10.557907 3.9788,9.087218 6.60108,9.227479 7.91391,7.914732 9.22674,6.601985 9.0871,3.978983 10.55791,3.011995 12.02871,2.045006 13.78362,3.022905 15.53005,2.578404 17.27649,2.133906 18.92526,0.25 20.86582,0.25 c 1.94055,0 3.58933,1.883906 5.33576,2.328404 1.74643,0.444498 3.50148,-0.533469 4.97214,0.433592 1.47066,0.967061 1.33018,3.589894 2.64301,4.902736 1.31282,1.312842 3.93586,1.17246 4.90291,2.643177 0.96704,1.470717 -0.0111,3.225697 0.43342,4.972143 0.44449,1.746445 2.32857,3.395185 2.32857,5.335765 0,1.940581 -1.88408,3.589321 -2.32857,5.335767 -0.4445,1.746445 0.53357,3.501334 -0.43343,4.972144 -0.96699,1.470807 -3.59014,1.330979 -4.9029,2.64382 -1.31277,1.312843 -1.17245,3.935021 -2.64301,4.90209 z"
         sodipodi:nodetypes="zzzzzzzzzzzzzzzzzzzzzzzzz" />
      <circle
         style="fill:#d29f32;fill-opacity:1;stroke:none;stroke-width:1.99013;stroke-linecap:butt;stroke-linejoin:round;stroke-miterlimit:4;stroke-dasharray:none;stroke-opacity:1;paint-order:normal"
         id="path35177"
         cx="22.428492"
         cy="21.116184"
         r="13.896519" />
      <path
         id="path34811"
         style="fill:none;stroke:#1a1a1a;stroke-width:0.25;stroke-linejoin:round;stroke-miterlimit:4;stroke-dasharray:none"
         d="m 33.39904,16.096923 a 13.409846,13.409846 0 0 1 0.87662,4.768894 v 0 A 13.409846,13.409846 0 0 1 20.86581,34.275663 13.409846,13.409846 0 0 1 7.45597,20.865817 13.409846,13.409846 0 0 1 20.86581,7.45597 13.409846,13.409846 0 0 1 27.6929,9.323944" />
      <path
         style="color:#000000;fill:#d8ad4f;fill-opacity:1;stroke:none;stroke-width:0.134811;stroke-linejoin:round;stroke-miterlimit:4;stroke-dasharray:none;stroke-opacity:1"
         sodipodi:type="inkscape:offset"
         inkscape:radius="0.071511075"
         inkscape:original="M 35.853516 1.7773438 L 35.853516 1.7792969 A 0.32127491 0.30008872 0 0 0 35.53125 2.078125 L 35.53125 2.3027344 C 34.947875 2.4383268 34.511719 2.934577 34.511719 3.5195312 C 34.511719 3.930912 34.727555 4.2966321 35.058594 4.5253906 C 35.073194 4.5354846 35.088476 4.5451385 35.103516 4.5546875 C 35.111216 4.5595775 35.119123 4.5636094 35.126953 4.5683594 C 35.134253 4.5727794 35.141057 4.5777413 35.148438 4.5820312 C 35.150337 4.5830412 35.152497 4.5849275 35.154297 4.5859375 C 35.160297 4.5893475 35.165835 4.5923581 35.171875 4.5957031 C 35.175175 4.5975331 35.178341 4.5997625 35.181641 4.6015625 C 35.186141 4.6040225 35.190772 4.606965 35.195312 4.609375 C 35.198912 4.611275 35.203381 4.6114012 35.207031 4.6132812 C 35.226871 4.6235732 35.247148 4.6351673 35.267578 4.6445312 C 35.271878 4.6465112 35.274887 4.6484406 35.279297 4.6503906 C 35.283397 4.6521906 35.288859 4.6524969 35.292969 4.6542969 C 35.309899 4.6616369 35.32646 4.6690843 35.34375 4.6757812 C 35.34705 4.6770512 35.350216 4.6783975 35.353516 4.6796875 C 35.358416 4.6815375 35.362318 4.6837669 35.367188 4.6855469 C 35.370787 4.6868669 35.375256 4.6881331 35.378906 4.6894531 C 35.383906 4.6912231 35.389551 4.6916394 35.394531 4.6933594 C 35.397831 4.6945194 35.400747 4.6961356 35.404297 4.6972656 C 35.409597 4.6990356 35.414602 4.701415 35.419922 4.703125 C 35.423122 4.704185 35.426387 4.7059913 35.429688 4.7070312 C 35.434987 4.7087012 35.439922 4.7093175 35.445312 4.7109375 C 35.448512 4.71189 35.451778 4.7139237 35.455078 4.7148438 C 35.462878 4.7171237 35.470686 4.7185531 35.478516 4.7207031 C 35.508336 4.7288731 35.537739 4.7359485 35.568359 4.7421875 C 35.570759 4.7426638 35.573672 4.7436406 35.576172 4.7441406 C 35.582172 4.7453306 35.58769 4.7449737 35.59375 4.7460938 C 35.59925 4.7471238 35.605768 4.74904 35.611328 4.75 C 35.612628 4.7502911 35.613834 4.7517433 35.615234 4.7519531 C 35.618434 4.7525616 35.6218 4.7514231 35.625 4.7519531 C 35.6269 4.7522442 35.629059 4.7536435 35.630859 4.7539062 C 35.634059 4.754409 35.637425 4.7534319 35.640625 4.7539062 C 35.643225 4.7543032 35.645837 4.7554894 35.648438 4.7558594 C 35.650337 4.7561505 35.652597 4.7575087 35.654297 4.7578125 C 35.654297 4.7578125 35.65625 4.7578125 35.65625 4.7578125 C 35.66055 4.7584475 35.665512 4.7591845 35.669922 4.7597656 C 35.672322 4.7600566 35.673381 4.7594764 35.675781 4.7597656 C 35.676881 4.7598627 35.678687 4.7596598 35.679688 4.7597656 C 35.683188 4.7601625 35.686003 4.7613768 35.689453 4.7617188 C 35.692353 4.7620099 35.696319 4.7614031 35.699219 4.7617188 C 35.750179 4.7672887 35.801033 4.7714844 35.853516 4.7714844 C 36.243136 4.7714844 36.552734 5.0599001 36.552734 5.4238281 C 36.552734 5.7877564 36.243136 6.0761719 35.853516 6.0761719 C 35.463893 6.0761719 35.154297 5.7877553 35.154297 5.4238281 A 0.32127491 0.30008872 0 0 0 34.833984 5.1230469 A 0.32127491 0.30008872 0 0 0 34.513672 5.4238281 C 34.513672 6.0087948 34.94981 6.5031031 35.533203 6.6386719 L 35.533203 6.8613281 A 0.32127491 0.30008872 0 0 0 35.853516 7.1601562 A 0.32127491 0.30008872 0 0 0 36.175781 6.8613281 L 36.175781 6.6386719 C 36.759171 6.5031 37.195312 6.0087912 37.195312 5.4238281 C 37.195312 5.0439105 37.011559 4.7010374 36.722656 4.4707031 C 36.720056 4.4686131 36.715591 4.4668838 36.712891 4.4648438 C 36.710091 4.4626237 36.707778 4.4611544 36.705078 4.4589844 C 36.703178 4.4575044 36.701119 4.454585 36.699219 4.453125 C 36.691619 4.447415 36.685354 4.443061 36.677734 4.4375 C 36.676434 4.43649 36.673175 4.4346037 36.671875 4.4335938 C 36.665775 4.4291738 36.660437 4.4242379 36.654297 4.4199219 C 36.651697 4.4181519 36.648984 4.4177856 36.646484 4.4160156 C 36.643584 4.4140356 36.639619 4.4121063 36.636719 4.4101562 C 36.634619 4.4086463 36.633059 4.4057869 36.630859 4.4042969 C 36.612469 4.3919829 36.593289 4.3805906 36.574219 4.3691406 C 36.571619 4.3675506 36.569006 4.3648712 36.566406 4.3632812 C 36.367442 4.2456319 36.1348 4.1770955 35.884766 4.171875 C 35.874736 4.1716808 35.863556 4.1699219 35.853516 4.1699219 L 35.851562 4.1699219 C 35.461942 4.1699219 35.154297 3.8815053 35.154297 3.5175781 C 35.154297 3.1536498 35.461942 2.8652344 35.851562 2.8652344 C 36.241183 2.8652344 36.550781 3.1536509 36.550781 3.5175781 A 0.32127491 0.30008872 0 0 0 36.873047 3.8183594 A 0.32127491 0.30008872 0 0 0 37.193359 3.5175781 C 37.193359 2.9326222 36.757197 2.438323 36.173828 2.3027344 L 36.173828 2.078125 A 0.32127491 0.30008872 0 0 0 35.853516 1.7773438 z "
         xlink:href="#path838"
         id="path38861"
         transform="matrix(2.9141387,0,0,2.9141387,-83.616301,7.8432566)"
         inkscape:href="#path838"
         d="m 35.853516,1.7050781 a 0.07151823,0.07151823 0 0 0 -0.0078,0.00391 c -0.09879,0.00172 -0.196202,0.039284 -0.267578,0.1054687 -0.07333,0.067996 -0.118698,0.1651357 -0.119141,0.2636719 V 2.25 c -0.584184,0.161094 -1.019531,0.6686786 -1.019531,1.2695312 0,0.4363936 0.22972,0.8236942 0.578125,1.0644532 0.01626,0.011239 0.03193,0.02176 0.04687,0.03125 0.01139,0.00723 0.02047,0.010687 0.02539,0.013672 0.0039,0.00234 0.01185,0.00889 0.02344,0.015625 a 0.07151823,0.07151823 0 0 0 0.002,0 c -0.01084,-0.00577 -0.0097,-0.00375 0.0039,0.00391 0.0067,0.00382 0.01184,0.00659 0.01758,0.00977 -0.0013,-7.083e-4 0.0016,0.00138 0.0098,0.00586 0.0016,8.524e-4 0.0076,0.00354 0.01563,0.00781 0.02405,0.012693 0.02803,0.014263 0.01172,0.00586 0.01803,0.00935 0.03999,0.020038 0.06445,0.03125 -2.19e-4,-1.008e-4 0.0024,0.00172 0.01172,0.00586 a 0.07151823,0.07151823 0 0 0 0,0.00195 c 0.02277,0.01 0.02816,0.01025 0.01367,0.00391 0.01635,0.00709 0.03509,0.013893 0.05469,0.021484 0.0018,6.921e-4 0.0052,0.00212 0.0098,0.00391 -0.0011,-4.246e-4 0.0023,0.0017 0.01367,0.00586 0.0077,0.00282 0.01382,0.00396 0.01367,0.00391 a 0.07151823,0.07151823 0 0 0 0,0.00195 c 0.01764,0.00624 0.02304,0.00647 0.01563,0.00391 -0.0033,-0.00116 0.0019,0.00118 0.0098,0.00391 -1.2e-4,-4.02e-5 0.0066,0.00281 0.01563,0.00586 -0.006,-0.002 -0.0013,-2.04e-4 0.01172,0.00391 0.01263,0.00398 0.01697,0.00431 0.01563,0.00391 a 0.07151823,0.07151823 0 0 0 0.002,0 c -0.01072,-0.00319 -0.008,-0.00106 0.0098,0.00391 0.01241,0.00363 0.01951,0.00478 0.02344,0.00586 0.03123,0.00856 0.06349,0.016875 0.0957,0.023437 -0.0051,-0.00101 -0.0018,3.56e-5 0.0078,0.00195 0.01688,0.00335 0.02182,0.00274 0.01758,0.00195 -1.34e-4,-2.51e-5 0.0072,9.288e-4 0.01172,0.00195 0.0036,0.00118 0.005,0.00105 0.0078,0.00195 0.0013,4.158e-4 0.0033,-2.033e-4 0.0039,0 -2.17e-4,-6.78e-5 -0.0017,0.00205 -0.002,0.00195 8e-4,1.522e-4 0.01351,0.00202 0.01758,0.00195 9.58e-4,-1.52e-5 0.0012,3.22e-5 0.002,0 0.0018,-7.26e-5 0.003,-0.00188 0.0039,-0.00195 0,0 0.002,0.00195 0.002,0.00195 6.23e-4,2.448e-4 9.29e-4,-3.723e-4 0.002,0 -0.0018,-3.444e-4 0.005,4.467e-4 0.002,0 0.0031,7.454e-4 0.0062,0.002 0.0059,0.00195 0.0024,6.342e-4 0.0057,0.00192 0.0059,0.00195 a 0.07151823,0.07151823 0 0 0 0.01172,0.00195 h 0.002 c 0.0015,2.033e-4 0.0024,-1.95e-4 0.0039,0 a 0.07151823,0.07151823 0 0 0 0.002,0 c 0.0045,5.447e-4 0.0064,7.96e-5 0.0098,0 0.0027,7.61e-5 0.0073,0.00197 0.0078,0.00195 0.0022,2.79e-4 -0.0012,-3.085e-4 0.002,0 0.01917,0.00192 0.02364,0.00151 0.0098,0 0.05221,0.00571 0.105815,0.011719 0.16211,0.011719 0.354329,0 0.626953,0.256707 0.626953,0.5800781 0,0.3233715 -0.272624,0.5800781 -0.626953,0.5800781 -0.354333,0 -0.626954,-0.2567076 -0.626954,-0.5800781 2.44e-4,-0.098563 -0.04428,-0.1952115 -0.117187,-0.2636719 -0.07291,-0.06846 -0.173838,-0.1090912 -0.275391,-0.109375 -0.101552,2.841e-4 -0.202485,0.040915 -0.27539,0.109375 -0.07291,0.06846 -0.117432,0.1651087 -0.117188,0.2636719 0,0.6008626 0.435455,1.1066504 1.019532,1.2675781 v 0.1699219 c 4.4e-4,0.098155 0.04436,0.1957248 0.117187,0.2636719 0.07283,0.067947 0.174259,0.1071399 0.275391,0.1074219 0.101524,2.931e-4 0.202062,-0.039426 0.27539,-0.1074219 0.07333,-0.067996 0.118698,-0.1651359 0.119141,-0.2636719 V 6.6914062 c 0.584074,-0.1609306 1.019531,-0.6667185 1.019531,-1.2675781 0,-0.4029759 -0.195606,-0.7670808 -0.5,-1.0097656 -0.01625,-0.01306 -0.01637,-0.011309 -0.0098,-0.00586 -9.25e-4,-7.342e-4 -0.0012,5.775e-4 -0.002,0 -5.13e-4,-5.687e-4 -0.0021,-0.00202 -0.0039,-0.00391 -4.04e-4,-4.147e-4 -0.0012,-0.00126 -0.002,-0.00195 -1.9e-4,-1.683e-4 -0.002,-5.92e-5 -0.002,0 -0.0026,-0.0023 -0.0055,-0.00562 -0.0059,-0.00586 -0.0087,-0.00656 -0.01458,-0.012542 -0.02148,-0.017578 v 0.00195 c -4.68e-4,-3.636e-4 -0.0035,-0.00227 -0.0059,-0.00391 a 0.07151823,0.07151823 0 0 0 -0.002,-0.00195 c -0.0017,-0.00121 -0.0064,-0.00582 -0.01758,-0.013672 -0.01794,-0.01221 -0.02143,-0.013546 -0.0078,-0.00391 -0.0013,-9.197e-4 -8.24e-4,7.445e-4 -0.002,0 -7.74e-4,-6.836e-4 -0.001,-0.00116 -0.002,-0.00195 -4.79e-4,-4.91e-4 -0.0011,-0.00122 -0.002,-0.00195 -0.001,-5.678e-4 -0.0045,-0.00244 -0.0039,-0.00195 -0.003,-0.0025 -0.0056,-0.00566 -0.0059,-0.00586 a 0.07151823,0.07151823 0 0 0 -0.002,0 c -0.02055,-0.013759 -0.03972,-0.025776 -0.05859,-0.037109 0.0097,0.00594 0.0071,0.00326 -0.0078,-0.00586 a 0.07151823,0.07151823 0 0 0 0,-0.00195 c -0.209513,-0.1238868 -0.454629,-0.195698 -0.716797,-0.2011718 -0.0027,-5.24e-5 -0.01481,-0.00195 -0.0332,-0.00195 h -0.002 c -0.354329,0 -0.625,-0.256452 -0.625,-0.5800781 0,-0.3236273 0.270671,-0.5800781 0.625,-0.5800781 0.354331,0 0.626954,0.2567079 0.626954,0.5800781 -2.45e-4,0.098945 0.04378,0.1971157 0.117187,0.265625 0.0734,0.068509 0.175398,0.1077159 0.277344,0.1074219 0.101552,-2.84e-4 0.202485,-0.040915 0.275391,-0.109375 0.0729,-0.06846 0.117431,-0.1651086 0.117187,-0.2636719 0,-0.6008546 -0.435477,-1.1066325 -1.019531,-1.2675781 V 2.078125 c 2.44e-4,-0.098563 -0.04428,-0.1952116 -0.117188,-0.2636719 -0.0729,-0.06846 -0.173838,-0.1090909 -0.27539,-0.109375 z" />
      <circle
         style="fill:#d29f32;fill-opacity:1;stroke:none;stroke-width:0.260715;stroke-linecap:butt;stroke-linejoin:round;stroke-miterlimit:4;stroke-dasharray:none;stroke-opacity:1;paint-order:normal"
         id="circle48023"
         cx="20.988443"
         cy="2.6221073"
         r="1.0084327" />
      <circle
         style="fill:none;fill-opacity:1;stroke:#1a1a1a;stroke-width:0.25;stroke-linecap:butt;stroke-linejoin:round;stroke-miterlimit:4;stroke-dasharray:none;stroke-opacity:1;paint-order:normal"
         id="path41270"
         cx="20.776331"
         cy="2.36678"
         r="1.0084327" />
      <path
         id="path43389"
         style="fill:#1a1a1a;stroke:none;stroke-width:0.11642;stroke-linejoin:round"
         d="m 20.87505,2.465502 -0.0988,0.563471 -0.0992,-0.563471 -0.563,-0.09881 0.563,-0.09125 0.0992,-0.570863 0.0988,0.570863 0.56347,0.09125 z"
         sodipodi:nodetypes="ccccccccc" />
      <g
         id="g57594"
         transform="translate(-20.05799,15.562516)">
        <circle
           style="fill:#d29f32;fill-opacity:1;stroke:none;stroke-width:0.260715;stroke-linecap:butt;stroke-linejoin:round;stroke-miterlimit:4;stroke-dasharray:none;stroke-opacity:1;paint-order:normal"
           id="circle57585"
           cx="41.04644"
           cy="24.059591"
           r="1.0084327" />
        <circle
           style="fill:none;fill-opacity:1;stroke:#1a1a1a;stroke-width:0.25;stroke-linecap:butt;stroke-linejoin:round;stroke-miterlimit:4;stroke-dasharray:none;stroke-opacity:1;paint-order:normal"
           id="circle57587"
           cx="40.83432"
           cy="23.804262"
           r="1.0084327" />
        <path
           id="path57589"
           style="fill:#1a1a1a;stroke:none;stroke-width:0.11642;stroke-linejoin:round"
           d="m 40.933043,23.902986 -0.09878,0.563471 -0.09915,-0.563471 -0.563007,-0.09881 0.563007,-0.09125 0.09915,-0.570863 0.09878,0.570863 0.563472,0.09125 z"
           sodipodi:nodetypes="ccccccccc" />
      </g>
      <circle
         style="fill:#d29f32;fill-opacity:1;stroke:none;stroke-width:0.260715;stroke-linecap:butt;stroke-linejoin:round;stroke-miterlimit:4;stroke-dasharray:none;stroke-opacity:1;paint-order:normal"
         id="circle57585-8"
         cx="39.515236"
         cy="20.872351"
         r="1.0084327" />
      <circle
         style="fill:none;fill-opacity:1;stroke:#1a1a1a;stroke-width:0.25;stroke-linecap:butt;stroke-linejoin:round;stroke-miterlimit:4;stroke-dasharray:none;stroke-opacity:1;paint-order:normal"
         id="circle57587-2"
         cx="39.148445"
         cy="20.872351"
         r="1.0084327" />
      <path
         id="path57589-7"
         style="fill:#1a1a1a;stroke:none;stroke-width:0.11642;stroke-linejoin:round"
         d="m 39.24717,20.971075 -0.0988,0.563471 -0.0992,-0.563471 -0.563,-0.09881 0.563,-0.09125 0.0992,-0.570863 0.0988,0.570863 0.56347,0.09125 z"
         sodipodi:nodetypes="ccccccccc" />
      <circle
         style="fill:#d29f32;fill-opacity:1;stroke:none;stroke-width:0.260715;stroke-linecap:butt;stroke-linejoin:round;stroke-miterlimit:4;stroke-dasharray:none;stroke-opacity:1;paint-order:normal"
         id="circle57633"
         cx="2.6574488"
         cy="20.684851"
         r="1.0084327" />
      <circle
         style="fill:none;fill-opacity:1;stroke:#1a1a1a;stroke-width:0.25;stroke-linecap:butt;stroke-linejoin:round;stroke-miterlimit:4;stroke-dasharray:none;stroke-opacity:1;paint-order:normal"
         id="circle57635"
         cx="2.2734461"
         cy="20.684851"
         r="1.0084327" />
      <path
         id="path57637"
         style="fill:#1a1a1a;stroke:none;stroke-width:0.11642;stroke-linejoin:round"
         d="m 2.37217,20.783575 -0.0988,0.563471 -0.0992,-0.563471 -0.563,-0.09881 0.563,-0.09125 0.0992,-0.570863 0.0988,0.570863 0.56347,0.09125 z"
         sodipodi:nodetypes="ccccccccc" />
      <path
         style="color:#000000;fill:#d29f32;fill-opacity:1;stroke:#1a1a1a;stroke-width:0.134811;stroke-linejoin:round;stroke-miterlimit:4;stroke-dasharray:none;stroke-opacity:1"
         sodipodi:type="inkscape:offset"
         inkscape:radius="0.071511075"
         inkscape:original="M 35.853516 1.7773438 L 35.853516 1.7792969 A 0.32127491 0.30008872 0 0 0 35.53125 2.078125 L 35.53125 2.3027344 C 34.947875 2.4383268 34.511719 2.934577 34.511719 3.5195312 C 34.511719 3.930912 34.727555 4.2966321 35.058594 4.5253906 C 35.073194 4.5354846 35.088476 4.5451385 35.103516 4.5546875 C 35.111216 4.5595775 35.119123 4.5636094 35.126953 4.5683594 C 35.134253 4.5727794 35.141057 4.5777413 35.148438 4.5820312 C 35.150337 4.5830412 35.152497 4.5849275 35.154297 4.5859375 C 35.160297 4.5893475 35.165835 4.5923581 35.171875 4.5957031 C 35.175175 4.5975331 35.178341 4.5997625 35.181641 4.6015625 C 35.186141 4.6040225 35.190772 4.606965 35.195312 4.609375 C 35.198912 4.611275 35.203381 4.6114012 35.207031 4.6132812 C 35.226871 4.6235732 35.247148 4.6351673 35.267578 4.6445312 C 35.271878 4.6465112 35.274887 4.6484406 35.279297 4.6503906 C 35.283397 4.6521906 35.288859 4.6524969 35.292969 4.6542969 C 35.309899 4.6616369 35.32646 4.6690843 35.34375 4.6757812 C 35.34705 4.6770512 35.350216 4.6783975 35.353516 4.6796875 C 35.358416 4.6815375 35.362318 4.6837669 35.367188 4.6855469 C 35.370787 4.6868669 35.375256 4.6881331 35.378906 4.6894531 C 35.383906 4.6912231 35.389551 4.6916394 35.394531 4.6933594 C 35.397831 4.6945194 35.400747 4.6961356 35.404297 4.6972656 C 35.409597 4.6990356 35.414602 4.701415 35.419922 4.703125 C 35.423122 4.704185 35.426387 4.7059913 35.429688 4.7070312 C 35.434987 4.7087012 35.439922 4.7093175 35.445312 4.7109375 C 35.448512 4.71189 35.451778 4.7139237 35.455078 4.7148438 C 35.462878 4.7171237 35.470686 4.7185531 35.478516 4.7207031 C 35.508336 4.7288731 35.537739 4.7359485 35.568359 4.7421875 C 35.570759 4.7426638 35.573672 4.7436406 35.576172 4.7441406 C 35.582172 4.7453306 35.58769 4.7449737 35.59375 4.7460938 C 35.59925 4.7471238 35.605768 4.74904 35.611328 4.75 C 35.612628 4.7502911 35.613834 4.7517433 35.615234 4.7519531 C 35.618434 4.7525616 35.6218 4.7514231 35.625 4.7519531 C 35.6269 4.7522442 35.629059 4.7536435 35.630859 4.7539062 C 35.634059 4.754409 35.637425 4.7534319 35.640625 4.7539062 C 35.643225 4.7543032 35.645837 4.7554894 35.648438 4.7558594 C 35.650337 4.7561505 35.652597 4.7575087 35.654297 4.7578125 C 35.654297 4.7578125 35.65625 4.7578125 35.65625 4.7578125 C 35.66055 4.7584475 35.665512 4.7591845 35.669922 4.7597656 C 35.672322 4.7600566 35.673381 4.7594764 35.675781 4.7597656 C 35.676881 4.7598627 35.678687 4.7596598 35.679688 4.7597656 C 35.683188 4.7601625 35.686003 4.7613768 35.689453 4.7617188 C 35.692353 4.7620099 35.696319 4.7614031 35.699219 4.7617188 C 35.750179 4.7672887 35.801033 4.7714844 35.853516 4.7714844 C 36.243136 4.7714844 36.552734 5.0599001 36.552734 5.4238281 C 36.552734 5.7877564 36.243136 6.0761719 35.853516 6.0761719 C 35.463893 6.0761719 35.154297 5.7877553 35.154297 5.4238281 A 0.32127491 0.30008872 0 0 0 34.833984 5.1230469 A 0.32127491 0.30008872 0 0 0 34.513672 5.4238281 C 34.513672 6.0087948 34.94981 6.5031031 35.533203 6.6386719 L 35.533203 6.8613281 A 0.32127491 0.30008872 0 0 0 35.853516 7.1601562 A 0.32127491 0.30008872 0 0 0 36.175781 6.8613281 L 36.175781 6.6386719 C 36.759171 6.5031 37.195312 6.0087912 37.195312 5.4238281 C 37.195312 5.0439105 37.011559 4.7010374 36.722656 4.4707031 C 36.720056 4.4686131 36.715591 4.4668838 36.712891 4.4648438 C 36.710091 4.4626237 36.707778 4.4611544 36.705078 4.4589844 C 36.703178 4.4575044 36.701119 4.454585 36.699219 4.453125 C 36.691619 4.447415 36.685354 4.443061 36.677734 4.4375 C 36.676434 4.43649 36.673175 4.4346037 36.671875 4.4335938 C 36.665775 4.4291738 36.660437 4.4242379 36.654297 4.4199219 C 36.651697 4.4181519 36.648984 4.4177856 36.646484 4.4160156 C 36.643584 4.4140356 36.639619 4.4121063 36.636719 4.4101562 C 36.634619 4.4086463 36.633059 4.4057869 36.630859 4.4042969 C 36.612469 4.3919829 36.593289 4.3805906 36.574219 4.3691406 C 36.571619 4.3675506 36.569006 4.3648712 36.566406 4.3632812 C 36.367442 4.2456319 36.1348 4.1770955 35.884766 4.171875 C 35.874736 4.1716808 35.863556 4.1699219 35.853516 4.1699219 L 35.851562 4.1699219 C 35.461942 4.1699219 35.154297 3.8815053 35.154297 3.5175781 C 35.154297 3.1536498 35.461942 2.8652344 35.851562 2.8652344 C 36.241183 2.8652344 36.550781 3.1536509 36.550781 3.5175781 A 0.32127491 0.30008872 0 0 0 36.873047 3.8183594 A 0.32127491 0.30008872 0 0 0 37.193359 3.5175781 C 37.193359 2.9326222 36.757197 2.438323 36.173828 2.3027344 L 36.173828 2.078125 A 0.32127491 0.30008872 0 0 0 35.853516 1.7773438 z "
         xlink:href="#path838"
         id="path74985"
         transform="matrix(2.9141387,0,0,2.9141387,-83.616301,7.8432566)"
         inkscape:href="#path838"
         d="m 35.853516,1.7050781 a 0.07151823,0.07151823 0 0 0 -0.0078,0.00391 c -0.09879,0.00172 -0.196202,0.039284 -0.267578,0.1054687 -0.07333,0.067996 -0.118698,0.1651357 -0.119141,0.2636719 V 2.25 c -0.584184,0.161094 -1.019531,0.6686786 -1.019531,1.2695312 0,0.4363936 0.22972,0.8236942 0.578125,1.0644532 0.01626,0.011239 0.03193,0.02176 0.04687,0.03125 0.01139,0.00723 0.02047,0.010687 0.02539,0.013672 0.0039,0.00234 0.01185,0.00889 0.02344,0.015625 a 0.07151823,0.07151823 0 0 0 0.002,0 c -0.01084,-0.00577 -0.0097,-0.00375 0.0039,0.00391 0.0067,0.00382 0.01184,0.00659 0.01758,0.00977 -0.0013,-7.083e-4 0.0016,0.00138 0.0098,0.00586 0.0016,8.524e-4 0.0076,0.00354 0.01563,0.00781 0.02405,0.012693 0.02803,0.014263 0.01172,0.00586 0.01803,0.00935 0.03999,0.020038 0.06445,0.03125 -2.19e-4,-1.008e-4 0.0024,0.00172 0.01172,0.00586 a 0.07151823,0.07151823 0 0 0 0,0.00195 c 0.02277,0.01 0.02816,0.01025 0.01367,0.00391 0.01635,0.00709 0.03509,0.013893 0.05469,0.021484 0.0018,6.921e-4 0.0052,0.00212 0.0098,0.00391 -0.0011,-4.246e-4 0.0023,0.0017 0.01367,0.00586 0.0077,0.00282 0.01382,0.00396 0.01367,0.00391 a 0.07151823,0.07151823 0 0 0 0,0.00195 c 0.01764,0.00624 0.02304,0.00647 0.01563,0.00391 -0.0033,-0.00116 0.0019,0.00118 0.0098,0.00391 -1.2e-4,-4.02e-5 0.0066,0.00281 0.01563,0.00586 -0.006,-0.002 -0.0013,-2.04e-4 0.01172,0.00391 0.01263,0.00398 0.01697,0.00431 0.01563,0.00391 a 0.07151823,0.07151823 0 0 0 0.002,0 c -0.01072,-0.00319 -0.008,-0.00106 0.0098,0.00391 0.01241,0.00363 0.01951,0.00478 0.02344,0.00586 0.03123,0.00856 0.06349,0.016875 0.0957,0.023437 -0.0051,-0.00101 -0.0018,3.56e-5 0.0078,0.00195 0.01688,0.00335 0.02182,0.00274 0.01758,0.00195 -1.34e-4,-2.51e-5 0.0072,9.288e-4 0.01172,0.00195 0.0036,0.00118 0.005,0.00105 0.0078,0.00195 0.0013,4.158e-4 0.0033,-2.033e-4 0.0039,0 -2.17e-4,-6.78e-5 -0.0017,0.00205 -0.002,0.00195 8e-4,1.522e-4 0.01351,0.00202 0.01758,0.00195 9.58e-4,-1.52e-5 0.0012,3.22e-5 0.002,0 0.0018,-7.26e-5 0.003,-0.00188 0.0039,-0.00195 0,0 0.002,0.00195 0.002,0.00195 6.23e-4,2.448e-4 9.29e-4,-3.723e-4 0.002,0 -0.0018,-3.444e-4 0.005,4.467e-4 0.002,0 0.0031,7.454e-4 0.0062,0.002 0.0059,0.00195 0.0024,6.342e-4 0.0057,0.00192 0.0059,0.00195 a 0.07151823,0.07151823 0 0 0 0.01172,0.00195 h 0.002 c 0.0015,2.033e-4 0.0024,-1.95e-4 0.0039,0 a 0.07151823,0.07151823 0 0 0 0.002,0 c 0.0045,5.447e-4 0.0064,7.96e-5 0.0098,0 0.0027,7.61e-5 0.0073,0.00197 0.0078,0.00195 0.0022,2.79e-4 -0.0012,-3.085e-4 0.002,0 0.01917,0.00192 0.02364,0.00151 0.0098,0 0.05221,0.00571 0.105815,0.011719 0.16211,0.011719 0.354329,0 0.626953,0.256707 0.626953,0.5800781 0,0.3233715 -0.272624,0.5800781 -0.626953,0.5800781 -0.354333,0 -0.626954,-0.2567076 -0.626954,-0.5800781 2.44e-4,-0.098563 -0.04428,-0.1952115 -0.117187,-0.2636719 -0.07291,-0.06846 -0.173838,-0.1090912 -0.275391,-0.109375 -0.101552,2.841e-4 -0.202485,0.040915 -0.27539,0.109375 -0.07291,0.06846 -0.117432,0.1651087 -0.117188,0.2636719 0,0.6008626 0.435455,1.1066504 1.019532,1.2675781 v 0.1699219 c 4.4e-4,0.098155 0.04436,0.1957248 0.117187,0.2636719 0.07283,0.067947 0.174259,0.1071399 0.275391,0.1074219 0.101524,2.931e-4 0.202062,-0.039426 0.27539,-0.1074219 0.07333,-0.067996 0.118698,-0.1651359 0.119141,-0.2636719 V 6.6914062 c 0.584074,-0.1609306 1.019531,-0.6667185 1.019531,-1.2675781 0,-0.4029759 -0.195606,-0.7670808 -0.5,-1.0097656 -0.01625,-0.01306 -0.01637,-0.011309 -0.0098,-0.00586 -9.25e-4,-7.342e-4 -0.0012,5.775e-4 -0.002,0 -5.13e-4,-5.687e-4 -0.0021,-0.00202 -0.0039,-0.00391 -4.04e-4,-4.147e-4 -0.0012,-0.00126 -0.002,-0.00195 -1.9e-4,-1.683e-4 -0.002,-5.92e-5 -0.002,0 -0.0026,-0.0023 -0.0055,-0.00562 -0.0059,-0.00586 -0.0087,-0.00656 -0.01458,-0.012542 -0.02148,-0.017578 v 0.00195 c -4.68e-4,-3.636e-4 -0.0035,-0.00227 -0.0059,-0.00391 a 0.07151823,0.07151823 0 0 0 -0.002,-0.00195 c -0.0017,-0.00121 -0.0064,-0.00582 -0.01758,-0.013672 -0.01794,-0.01221 -0.02143,-0.013546 -0.0078,-0.00391 -0.0013,-9.197e-4 -8.24e-4,7.445e-4 -0.002,0 -7.74e-4,-6.836e-4 -0.001,-0.00116 -0.002,-0.00195 -4.79e-4,-4.91e-4 -0.0011,-0.00122 -0.002,-0.00195 -0.001,-5.678e-4 -0.0045,-0.00244 -0.0039,-0.00195 -0.003,-0.0025 -0.0056,-0.00566 -0.0059,-0.00586 a 0.07151823,0.07151823 0 0 0 -0.002,0 c -0.02055,-0.013759 -0.03972,-0.025776 -0.05859,-0.037109 0.0097,0.00594 0.0071,0.00326 -0.0078,-0.00586 a 0.07151823,0.07151823 0 0 0 0,-0.00195 c -0.209513,-0.1238868 -0.454629,-0.195698 -0.716797,-0.2011718 -0.0027,-5.24e-5 -0.01481,-0.00195 -0.0332,-0.00195 h -0.002 c -0.354329,0 -0.625,-0.256452 -0.625,-0.5800781 0,-0.3236273 0.270671,-0.5800781 0.625,-0.5800781 0.354331,0 0.626954,0.2567079 0.626954,0.5800781 -2.45e-4,0.098945 0.04378,0.1971157 0.117187,0.265625 0.0734,0.068509 0.175398,0.1077159 0.277344,0.1074219 0.101552,-2.84e-4 0.202485,-0.040915 0.275391,-0.109375 0.0729,-0.06846 0.117431,-0.1651086 0.117187,-0.2636719 0,-0.6008546 -0.435477,-1.1066325 -1.019531,-1.2675781 V 2.078125 c 2.44e-4,-0.098563 -0.04428,-0.1952116 -0.117188,-0.2636719 -0.0729,-0.06846 -0.173838,-0.1090909 -0.27539,-0.109375 z" />
      <path
         id="path75056"
         style="fill:#d8ad4f;fill-opacity:1;stroke:none;stroke-width:0.196429;stroke-linecap:butt;stroke-linejoin:miter;stroke-miterlimit:4;stroke-dasharray:none;stroke-opacity:1"
         d="m 21.287702,21.783411 c 0,0 -1.398545,-0.234145 -1.896242,-0.500988 -0.497697,-0.266844 -0.917538,-0.532488 -1.20313,-0.840963 -0.285593,-0.308476 -0.523956,-0.62325 -0.687503,-1.006701 -0.163539,-0.383451 -0.288288,-0.924026 -0.300781,-1.338175 -0.01249,-0.414148 0.114637,-0.830703 0.251674,-1.206198 0.137037,-0.375496 0.418881,-0.760648 0.724337,-1.095708 0.305447,-0.33506 0.687133,-0.584711 1.074217,-0.785718 0.387084,-0.201006 0.948385,-0.417412 0.948385,-0.417412 0,0 -0.118172,-0.396405 -0.01532,-0.850171 0.06702,-0.295595 0.504588,-0.685757 0.504588,-0.685757 -0.09888,-0.01207 -0.385575,0.128136 -0.542813,0.274168 -0.157246,0.146033 -0.252043,0.419527 -0.247643,0.680929 0.0031,0.176282 -0.02656,0.54513 -0.02656,0.54513 -1.867815,0.576397 -2.950125,1.950884 -2.943989,3.59138 0.05115,0.878364 0.333647,1.58343 0.765548,2.126642 0.431893,0.543211 0.888112,0.863725 1.245755,1.044858 0.357643,0.181133 0.87749,0.359509 1.251483,0.400674 0.373994,0.04116 0.52548,0.02044 1.098032,0.06401 z"
         sodipodi:nodetypes="cssssssscsczsccszzc" />
      <path
         id="path87302"
         style="fill:#d8ad4f;fill-opacity:1;stroke:none;stroke-width:0.196429;stroke-linecap:butt;stroke-linejoin:miter;stroke-miterlimit:4;stroke-dasharray:none;stroke-opacity:1"
         d="m 18.048441,22.776947 c 0,0 -0.257841,0.05166 -0.561238,0.303027 -0.46036,0.381412 -0.367213,0.592921 -0.296177,1.007255 0.06906,0.402966 0.0828,0.564487 0.43264,1.211962 0.349833,0.647473 0.550953,0.897583 0.859889,1.255948 -0.350241,-0.266206 -0.671545,-0.601988 -0.904981,-0.937557 -0.233437,-0.33557 -0.378999,-0.670928 -0.439138,-0.838074 -0.120285,-0.334292 -0.210438,-0.92095 -0.18275,-1.202189 0.02766,-0.281238 0.202315,-0.528563 0.442948,-0.672403 0.240634,-0.143839 0.425781,-0.145205 0.648807,-0.127969 z"
         sodipodi:nodetypes="csszcsszzc" />
      <path
         id="path90401"
         style="fill:#d8ad4f;fill-opacity:1;stroke:none;stroke-width:0.196429;stroke-linecap:butt;stroke-linejoin:miter;stroke-miterlimit:4;stroke-dasharray:none;stroke-opacity:1"
         d="m 20.231297,28.179006 c 0.158998,0.254792 0.421718,0.510813 0.421718,0.510813 -0.249276,-0.04625 -0.364093,-0.134275 -0.521331,-0.280307 -0.157246,-0.146033 -0.25205,-0.471703 -0.204679,-1.10448 0,0 0.08734,0.526315 0.304292,0.873974 z"
         sodipodi:nodetypes="sczcs" />
      <path
         id="path91901"
         style="fill:#d8ad4f;fill-opacity:1;stroke:none;stroke-width:0.196429;stroke-linecap:butt;stroke-linejoin:miter;stroke-miterlimit:4;stroke-dasharray:none;stroke-opacity:1"
         d="m 20.360304,16.263336 c 0,0 0.531412,-0.125414 0.913632,-0.02979 0.501131,0.125371 0.629777,0.181241 0.999347,0.495122 0.311615,0.264666 0.459534,0.602635 0.548006,0.865522 0.08846,0.262887 -0.07653,0.879692 0.514794,1.249926 C 22.91189,18.144332 23.10685,17.976078 23.007818,17.57948 22.908779,17.182882 22.877916,17.076636 22.791644,16.921355 22.6191,16.610792 22.390182,16.43613 22.160202,16.271893 21.93023,16.107658 21.230093,15.91985 20.963429,16.006368 c -0.266657,0.08652 -0.469333,0.0777 -0.603125,0.256966 z"
         sodipodi:nodetypes="csszcsszzc" />
      <path
         id="path93431"
         style="fill:#d8ad4f;fill-opacity:1;stroke:none;stroke-width:0.196429;stroke-linecap:butt;stroke-linejoin:miter;stroke-miterlimit:4;stroke-dasharray:none;stroke-opacity:1"
         d="m 21.86291,21.990767 c 0,0 0.515557,0.296947 0.700184,0.604853 0.265659,0.443034 0.297002,0.584169 0.319528,1.068519 0.01901,0.408404 -0.151824,0.728677 -0.283738,0.972678 -0.131906,0.244001 -0.407473,0.484033 -0.891247,0.752315 0.71725,-0.339862 0.898821,-0.454884 1.02309,-0.644351 0.224197,-0.341814 0.283904,-0.472459 0.330772,-0.6438 0.07566,-0.276615 0.06875,-0.560086 0.03198,-0.840285 -0.03677,-0.280198 -0.330905,-0.911098 -0.576056,-1.047096 -0.245152,-0.135998 -0.266445,-0.188943 -0.654534,-0.222833 z"
         sodipodi:nodetypes="csszcsszzc" />
    </g>
  </g>
</svg>
