<svg class="svg odd" viewBox="0 0 312.44 331.34">
	<g transform="translate(-3.0336 2.7964)">
		<g class="clr-primary" transform="matrix(1.3056 .17504 -.17504 1.3056 13.273 -34.839)">
			<path d="m124 33.897c-2.239 18.312-7.3715 35.337-13.868 51.757 6.2268 3.9115 14.181 6.2606 17.919 7.827 6.9854-16.619 12.851-39.589 15.381-57.403-4.4282-0.57733-13.823-2.2851-19.432-2.181z"/>
			<path d="m124 33.897s-23.811-6.6109-35.96-6.611c-10.559-8.9e-5 -22.32 7.2565-25.188 17.959-2.8676 10.702 3.5359 22.777 12.834 28.146 10.521 6.0744 34.448 12.256 34.448 12.256 7.143-16.656 11.127-33.861 13.866-51.75z"/>
			<path d="m143.43 36.076c-3.2224 20.815-8.3072 40.05-15.423 57.559 38.952 17.288 57.095 22.738 91.356 24.479 12.644 0.64239 25.709-52.158 15.423-57.559-32.034-16.818-43.865-19.232-91.356-24.479z"/>
			<path d="m141.45 48.11c-2.6362 12.477-5.2096 23.872-9.1456 34.132 29.796 13.029 44.615 19.261 69.771 18.695 9.3095-0.20923 16.301-29.796 9.1456-34.132-20.317-12.312-33.821-13.497-69.771-18.695z"/>
			<path d="m181.38 113.67s-0.9185 9.0605-5.0591 19.585c-4.1404 10.524-7.414 15.217-9.7407 23.901-2.3267 8.6832-0.56347 9.6268-2.2395 20.81-1.6762 11.184-5.411 19.49-5.411 19.49l36.548 9.793s0.67662-10.974 3.1229-20.103c2.4462-9.1296 5.14-10.249 7.5859-19.378 2.4462-9.1292 1.9481-16.204 4.3943-25.333s8.7812-24.323 8.7812-24.323c-12.215-0.86327-25.349-1.173-37.982-4.4409z"/>
			<path d="m141.8 201.4-7.6461 28.536c-0.503 1.8772 1.0369 4.5467 2.9142 5.0498l55.758 14.941c1.8772 0.50299 4.5454-1.0392 5.0484-2.9164l7.6461-28.536c1.0061-3.7547-2.0749-9.0936-5.8296-10.1l-47.791-12.806c-3.7547-1.0061-9.0926 2.077-10.099 5.8317z"/>
			<path d="m57.544 39.93-57.467-15.398-0.48644 1.8154-3.7758 0.93406 2.8029 2.6968-0.48645 1.8154 57.467 15.398c-0.05651-2.9868 0.30113-4.4833 1.9458-7.2617z"/>
		</g>
		<g class="clr-tertiary" transform="matrix(1.3056 .17504 -.17504 1.3056 13.273 -34.839)">
			<path d="m202 230.93-11.992-3.2133-2.5469 9.5051-36.548-9.793 2.5469-9.5051-15.003-4.0201-4.2882 16.043c-0.50203 1.8775 1.0369 4.5468 2.9142 5.0498l55.756 14.94c1.8772 0.50299 4.567-1.0335 5.0484-2.9164z"/>
			<path d="m171.37 111.21s0.0733 6.7396-0.97553 10.611c-1.0494 3.8712-3.0983 8.4454-5.6421 12.095-0.79205 1.1364-2.4958 1.5537-3.0419 3.3871-0.54609 1.8333 0.80989 2.9518 0.80989 2.9518 3.1939 1.523 5.4186 2.137 9.6502 2.5858 1.8712-4.0515 7.2829-14.994 9.2121-29.169-3.1086-0.43842-6.6421-1.5007-10.013-2.4614z"/>
			<path d="m112.84 48.535c1.4039-3.3617 2.2404-7.0142 2.5938-11.147-24.172-6.237-35.229-4.7815-41.501 2.9708 13.883 0.621 27.324 5.1456 38.907 8.1759z"/>
			<path d="m109.2 62.111c1.171-2.4926 2.1325-5.1452 2.2226-8.2946-23.284-6.0655-33.2-8.0313-39.881-6.241 4.8239 4.8239 14.121 8.2288 37.659 14.536z"/>
			<path d="m107.79 67.391c-0.46501 3.6133-1.5669 7.1947-3.327 10.95-24.052-6.6845-32.9-13.473-34.455-23.323 12.333 6.4035 26.236 9.2058 37.782 12.373z"/>
			<path d="m64.388 39.594s-3.1064-0.88013-4.4989-0.54435c-1.2109 0.29391-2.7617 2.1533-3.3885 4.4926-0.62682 2.3393-0.22855 4.7102 0.68831 5.5846 1.0375 0.98952 4.0266 1.7403 4.0266 1.7403-0.21722-4.2101 0.84867-7.8087 3.1728-11.273z"/>
		</g>
		<g class="clr-dark" transform="rotate(7.6359 41.693 5.6407)">
			<path d="m248.32 119.84c17.334 2.3128 35.602 5.3436 48.56 5.336-2.0674 4.866-3.9356 10.077-5.8574 15.196l3.6638-13.546c-23.806-2.5285-32.086-4.685-46.366-6.9852z"/>
			<path d="m193.06 39.304c32.712-0.46065 86.406 15.113 91.073 22.881 4.6663 7.7682 2.9922 24.222 2.9922 24.222 2.6127-8.3872 5.9021-24.144-0.73194-29.107-22.566-15.518-57.286-20.02-91.92-24.597z"/>
			<path d="m13.511 13.339c2.4771-5.9272 9.1568-7.8095 9.1568-7.8095 0.35005 4.1974 0.45341 8.5415 3.4733 11.151 3.1154-3.1749 6.1776-6.4563 11.193-7.2217 0.8576 4.1349 1.9885 8.401 4.0452 11.337 5.5251-4.2035 9.163-5.4308 13.114-6.7393 0.77989 4.3887 1.8746 8.5351 4.5746 11.447 4.1903-5.4923 8.8276-5.9938 13.454-6.6161l-3.4202-0.91646s-9.9169 0.83585-10.034 7.5325l-3.022-0.77781c-2.379-4.1962-1.3309-7.2144-1.5526-10.669l-2.7245-0.73002c-4.0093 1.5972-7.7665 3.6063-10.389 7.4693l-2.5506-0.68346c-1.5063-3.2991-1.4115-6.9985-1.4945-10.653l-2.4347-0.65237c-6.703 1.9748-6.6714 5.1954-8.7582 7.874l-2.9063-0.74648c-2.0836-3.3059-0.93628-6.8888-0.56697-10.405l-2.1449-0.57472c-6.7622 2.1318-7.0119 8.3842-7.0119 8.3842z"/>
		</g>
	</g>
</svg>
