<?xml version="1.0" encoding="UTF-8" standalone="no"?>
<!-- Created with Inkscape (http://www.inkscape.org/) -->

<svg
   width="54.946999"
   height="49.192001"
   viewBox="0 0 54.946998 49.192001"
   version="1.1"
   id="svg5"
   inkscape:version="1.1.1 (3bf5ae0d25, 2021-09-20)"
   sodipodi:docname="customer-satisfaction-icon.svg"
   xmlns:inkscape="http://www.inkscape.org/namespaces/inkscape"
   xmlns:sodipodi="http://sodipodi.sourceforge.net/DTD/sodipodi-0.dtd"
   xmlns:xlink="http://www.w3.org/1999/xlink"
   xmlns="http://www.w3.org/2000/svg"
   xmlns:svg="http://www.w3.org/2000/svg">
  <sodipodi:namedview
     id="namedview7"
     pagecolor="#ffffff"
     bordercolor="#666666"
     borderopacity="1.0"
     inkscape:pageshadow="2"
     inkscape:pageopacity="0.0"
     inkscape:pagecheckerboard="0"
     inkscape:document-units="px"
     showgrid="false"
     showborder="true"
     units="px"
     inkscape:zoom="2.8284272"
     inkscape:cx="109.248"
     inkscape:cy="-27.046834"
     inkscape:window-width="1920"
     inkscape:window-height="1017"
     inkscape:window-x="1912"
     inkscape:window-y="-8"
     inkscape:window-maximized="1"
     inkscape:current-layer="layer1"
     inkscape:snap-global="false"
     inkscape:snap-smooth-nodes="true"
     showguides="true"
     inkscape:guide-bbox="true"
     height="63.121px" />
  <defs
     id="defs2">
    <inkscape:path-effect
       effect="spiro"
       id="path-effect7674"
       is_visible="true"
       lpeversion="1" />
  </defs>
  <g
     inkscape:label="Layer 1"
     inkscape:groupmode="layer"
     id="layer1">
    <g
       id="g30469"
       transform="matrix(0.67249967,0,0,0.67249967,18.26175,14.634749)"
       style="fill:#1a1a1a;fill-opacity:1" />
    <path
       id="path3940"
       style="opacity:1;fill:#d8ad4f;fill-opacity:1;stroke:#1a1a1a;stroke-width:0.132292;stroke-linecap:round;stroke-linejoin:bevel;stroke-miterlimit:4;stroke-dasharray:none;stroke-opacity:1"
       sodipodi:type="inkscape:offset"
       inkscape:radius="0.069608361"
       inkscape:original="M 9.5507812 8.0058594 C 9.518835 8.0058594 9.4895028 8.0063247 9.4609375 8.0175781 C 9.4323722 8.0288315 9.4073834 8.0544334 9.3925781 8.0839844 C 9.3629675 8.1430863 9.356607 8.2226699 9.3457031 8.3671875 C 9.3158304 8.7631207 9.180626 9.1483614 9.0253906 9.3125 C 8.9558399 9.3860396 8.8952506 9.4302038 8.8046875 9.4648438 C 8.7141244 9.4994837 8.5908349 9.5221137 8.4023438 9.5449219 C 8.1210625 9.5789578 8.0072609 9.605722 7.8496094 9.6777344 C 7.6586572 9.7649582 7.578171 9.7845613 7.3691406 9.7949219 L 7.1757812 9.8046875 A 0.046776822 0.046776822 0 0 0 7.1308594 9.8515625 L 7.1308594 10.732422 L 7.1308594 11.611328 A 0.046776822 0.046776822 0 0 0 7.171875 11.658203 L 7.2714844 11.669922 A 0.046776822 0.046776822 0 0 0 7.2734375 11.669922 C 7.4183099 11.685063 7.5863286 11.746802 7.8476562 11.888672 C 8.149138 12.052341 8.2628043 12.100183 8.4433594 12.132812 C 8.58055 12.157606 8.8515922 12.185855 9.0683594 12.199219 C 9.1010144 12.201255 9.18638 12.20121 9.3066406 12.201172 C 9.4269012 12.201134 9.5776705 12.20077 9.7324219 12.199219 C 10.287276 12.193662 10.622834 12.179011 11.103516 12.136719 C 11.212144 12.12716 11.275715 12.120869 11.320312 12.111328 C 11.364911 12.101787 11.394041 12.083144 11.416016 12.0625 C 11.49303 11.990156 11.495677 11.864819 11.419922 11.789062 L 11.378906 11.748047 A 0.046776822 0.046776822 0 0 0 11.345703 11.734375 L 10.832031 11.734375 L 10.365234 11.734375 L 10.365234 11.609375 L 10.365234 11.482422 L 10.830078 11.482422 C 11.075807 11.482422 11.202444 11.481448 11.277344 11.476562 C 11.314793 11.47412 11.339836 11.471601 11.361328 11.464844 C 11.38282 11.458086 11.400437 11.446681 11.412109 11.4375 C 11.454449 11.404186 11.472707 11.353186 11.474609 11.302734 C 11.476512 11.252283 11.461018 11.199744 11.423828 11.160156 L 11.388672 11.123047 A 0.046776822 0.046776822 0 0 0 11.355469 11.107422 L 10.835938 11.107422 L 10.365234 11.107422 L 10.365234 10.972656 L 10.365234 10.835938 L 10.830078 10.835938 C 11.075745 10.835938 11.202607 10.836396 11.277344 10.832031 C 11.314712 10.829849 11.3398 10.826827 11.361328 10.820312 C 11.382857 10.8138 11.400261 10.802289 11.412109 10.792969 C 11.454449 10.759655 11.472707 10.708654 11.474609 10.658203 C 11.476512 10.607752 11.461018 10.555213 11.423828 10.515625 L 11.388672 10.478516 A 0.046776822 0.046776822 0 0 0 11.355469 10.462891 L 10.835938 10.462891 L 10.365234 10.462891 L 10.365234 10.326172 L 10.365234 10.191406 L 10.830078 10.191406 C 11.075746 10.191406 11.202607 10.191865 11.277344 10.1875 C 11.314712 10.185318 11.3398 10.182295 11.361328 10.175781 C 11.382857 10.169268 11.400261 10.157756 11.412109 10.148438 C 11.455614 10.114237 11.47511 10.061244 11.476562 10.009766 C 11.478017 9.9582865 11.460392 9.9052103 11.419922 9.8671875 C 11.410232 9.8580834 11.390827 9.8411323 11.365234 9.8339844 C 11.339642 9.8268365 11.309362 9.8249612 11.253906 9.8222656 C 11.142994 9.8168745 10.936043 9.8146351 10.525391 9.8125 L 9.7460938 9.8085938 L 9.7460938 9.6660156 C 9.7464309 9.5399944 9.7591445 9.4144448 9.7851562 9.2773438 C 9.8193759 9.0969876 9.8236658 9.0339151 9.8144531 8.8378906 C 9.808557 8.7124191 9.7899068 8.5031694 9.7714844 8.3691406 C 9.7513739 8.2228304 9.7384468 8.1402783 9.7070312 8.0820312 C 9.6913235 8.0529078 9.6670382 8.0308616 9.6386719 8.0195312 C 9.6103056 8.0082011 9.5821189 8.0058594 9.5507812 8.0058594 z "
       transform="matrix(3.2999444,0,0,3.2999444,9.036329,7.5006213)"
       d="m 9.5507812,7.9355469 c -0.032622,0 -0.072158,6.082e-4 -0.1152343,0.017578 -0.049183,0.019376 -0.083825,0.056409 -0.1054688,0.099609 -0.039032,0.077907 -0.043775,0.1639628 -0.054687,0.3085937 C 9.2464486,8.7449268 9.1063477,9.1263311 8.9746094,9.265625 8.9093663,9.3346099 8.8610968,9.3691025 8.7792969,9.4003906 8.6989744,9.4311136 8.5811648,9.4539791 8.3945312,9.4765625 8.1111525,9.5108522 7.9835505,9.5406702 7.8203125,9.6152344 7.632499,9.7010245 7.5708112,9.71442 7.3652344,9.7246094 L 7.171875,9.734375 c -0.058713,0.00339 -0.1114981,0.058282 -0.1113281,0.1171875 v 0.8808595 0.878906 c -5.487e-4,0.05652 0.047418,0.108275 0.1035156,0.115234 l 0.099609,0.01172 a 0.06961532,0.06961532 0 0 0 0.00586,0.002 c 0.1302772,0.01435 0.2894994,0.07032 0.5449219,0.208985 0.3029305,0.164455 0.4299459,0.218116 0.6171875,0.251953 0.1438744,0.026 0.4135891,0.05484 0.6328125,0.06836 0.040238,0.0025 0.1219339,0.002 0.2421875,0.002 0.1203827,-3.8e-5 0.2706859,-3.98e-4 0.4257813,-0.002 0.5557981,-0.0056 0.8948521,-0.02008 1.3769531,-0.0625 0.108922,-0.0096 0.172901,-0.01628 0.224609,-0.02734 0.05668,-0.01213 0.0998,-0.03906 0.128907,-0.06641 0.105676,-0.09927 0.109331,-0.269571 0.0059,-0.373047 l -0.04102,-0.04101 c -0.02163,-0.02159 -0.05147,-0.03526 -0.08203,-0.03516 h -0.513672 -0.396484 v -0.05469 -0.05664 h 0.394531 c 0.245913,0 0.371786,-6.8e-4 0.451172,-0.0059 0.03854,-0.0025 0.07003,-0.0057 0.101562,-0.01563 0.03249,-0.01022 0.05586,-0.02616 0.07227,-0.03906 0.06183,-0.04865 0.08738,-0.122055 0.08984,-0.1875 0.0025,-0.06649 -0.01869,-0.136451 -0.07031,-0.191407 a 0.06961532,0.06961532 0 0 0 0,-0.002 l -0.0332,-0.03516 c -0.02081,-0.02335 -0.05273,-0.03791 -0.08398,-0.03906 a 0.06961532,0.06961532 0 0 0 -0.002,0 h -0.519531 -0.400391 v -0.06445 -0.06641 h 0.394531 c 0.245581,0 0.371575,7.43e-4 0.451172,-0.0039 0.03929,-0.0023 0.06944,-0.0065 0.09961,-0.01563 0.03334,-0.01008 0.05823,-0.02648 0.07422,-0.03906 0.06183,-0.04865 0.08738,-0.122055 0.08984,-0.1875 0.0025,-0.06649 -0.01869,-0.13645 -0.07031,-0.191406 a 0.06961532,0.06961532 0 0 0 0,-0.002 l -0.0332,-0.03516 c -0.02081,-0.02335 -0.05273,-0.03791 -0.08398,-0.03906 a 0.06961532,0.06961532 0 0 0 -0.002,0 h -0.519531 -0.400391 v -0.06641 -0.06445 h 0.394531 c 0.245581,0 0.371574,7.42e-4 0.451172,-0.0039 0.03929,-0.0023 0.06945,-0.0065 0.09961,-0.01562 0.03334,-0.01009 0.05823,-0.02649 0.07422,-0.03906 0.06303,-0.04955 0.08989,-0.12372 0.0918,-0.191406 0.0019,-0.068699 -0.0234,-0.1420612 -0.08008,-0.1953128 -0.01206,-0.011335 -0.03776,-0.036463 -0.08203,-0.048828 -0.03626,-0.010126 -0.07116,-0.012913 -0.126954,-0.015625 -0.114172,-0.00555 -0.321638,-0.00763 -0.732421,-0.00977 l -0.7089848,-0.00195 v -0.074219 c 3.25e-4,-0.1214633 0.011774,-0.2414641 0.037109,-0.375 0.034575,-0.1822294 0.040543,-0.2592951 0.03125,-0.4570312 C 9.8787168,8.7052626 9.858734,8.4968078 9.8398438,8.359375 9.8196663,8.2125775 9.8082509,8.1242388 9.7675781,8.0488281 9.7446078,8.0062391 9.7086043,7.9728695 9.6640625,7.9550781 9.6240135,7.9390817 9.5855866,7.9355469 9.5507812,7.9355469 Z" />
    <rect
       style="fill:#d29f32;fill-opacity:1;stroke:none;stroke-width:0.434367;stroke-linecap:round;stroke-linejoin:bevel;stroke-opacity:1"
       id="rect35138"
       width="1.2278113"
       height="6.42869"
       x="32.355911"
       y="39.749634" />
    <path
       id="path1294"
       style="opacity:1;fill:none;fill-opacity:1;stroke:#1a1a1a;stroke-width:0.132292;stroke-linecap:round;stroke-linejoin:bevel;stroke-miterlimit:4;stroke-dasharray:none;stroke-opacity:1"
       sodipodi:type="inkscape:offset"
       inkscape:radius="0.069608361"
       inkscape:original="M 9.5507812 8.0058594 C 9.518835 8.0058594 9.4895028 8.0063247 9.4609375 8.0175781 C 9.4323722 8.0288315 9.4073834 8.0544334 9.3925781 8.0839844 C 9.3629675 8.1430863 9.356607 8.2226699 9.3457031 8.3671875 C 9.3158304 8.7631207 9.180626 9.1483614 9.0253906 9.3125 C 8.9558399 9.3860396 8.8952506 9.4302038 8.8046875 9.4648438 C 8.7141244 9.4994837 8.5908349 9.5221137 8.4023438 9.5449219 C 8.1210625 9.5789578 8.0072609 9.605722 7.8496094 9.6777344 C 7.6586572 9.7649582 7.578171 9.7845613 7.3691406 9.7949219 L 7.1757812 9.8046875 A 0.046776822 0.046776822 0 0 0 7.1308594 9.8515625 L 7.1308594 10.732422 L 7.1308594 11.611328 A 0.046776822 0.046776822 0 0 0 7.171875 11.658203 L 7.2714844 11.669922 A 0.046776822 0.046776822 0 0 0 7.2734375 11.669922 C 7.4183099 11.685063 7.5863286 11.746802 7.8476562 11.888672 C 8.149138 12.052341 8.2628043 12.100183 8.4433594 12.132812 C 8.58055 12.157606 8.8515922 12.185855 9.0683594 12.199219 C 9.1010144 12.201255 9.18638 12.20121 9.3066406 12.201172 C 9.4269012 12.201134 9.5776705 12.20077 9.7324219 12.199219 C 10.287276 12.193662 10.622834 12.179011 11.103516 12.136719 C 11.212144 12.12716 11.275715 12.120869 11.320312 12.111328 C 11.364911 12.101787 11.394041 12.083144 11.416016 12.0625 C 11.49303 11.990156 11.495677 11.864819 11.419922 11.789062 L 11.378906 11.748047 A 0.046776822 0.046776822 0 0 0 11.345703 11.734375 L 10.832031 11.734375 L 10.365234 11.734375 L 10.365234 11.609375 L 10.365234 11.482422 L 10.830078 11.482422 C 11.075807 11.482422 11.202444 11.481448 11.277344 11.476562 C 11.314793 11.47412 11.339836 11.471601 11.361328 11.464844 C 11.38282 11.458086 11.400437 11.446681 11.412109 11.4375 C 11.454449 11.404186 11.472707 11.353186 11.474609 11.302734 C 11.476512 11.252283 11.461018 11.199744 11.423828 11.160156 L 11.388672 11.123047 A 0.046776822 0.046776822 0 0 0 11.355469 11.107422 L 10.835938 11.107422 L 10.365234 11.107422 L 10.365234 10.972656 L 10.365234 10.835938 L 10.830078 10.835938 C 11.075745 10.835938 11.202607 10.836396 11.277344 10.832031 C 11.314712 10.829849 11.3398 10.826827 11.361328 10.820312 C 11.382857 10.8138 11.400261 10.802289 11.412109 10.792969 C 11.454449 10.759655 11.472707 10.708654 11.474609 10.658203 C 11.476512 10.607752 11.461018 10.555213 11.423828 10.515625 L 11.388672 10.478516 A 0.046776822 0.046776822 0 0 0 11.355469 10.462891 L 10.835938 10.462891 L 10.365234 10.462891 L 10.365234 10.326172 L 10.365234 10.191406 L 10.830078 10.191406 C 11.075746 10.191406 11.202607 10.191865 11.277344 10.1875 C 11.314712 10.185318 11.3398 10.182295 11.361328 10.175781 C 11.382857 10.169268 11.400261 10.157756 11.412109 10.148438 C 11.455614 10.114237 11.47511 10.061244 11.476562 10.009766 C 11.478017 9.9582865 11.460392 9.9052103 11.419922 9.8671875 C 11.410232 9.8580834 11.390827 9.8411323 11.365234 9.8339844 C 11.339642 9.8268365 11.309362 9.8249612 11.253906 9.8222656 C 11.142994 9.8168745 10.936043 9.8146351 10.525391 9.8125 L 9.7460938 9.8085938 L 9.7460938 9.6660156 C 9.7464309 9.5399944 9.7591445 9.4144448 9.7851562 9.2773438 C 9.8193759 9.0969876 9.8236658 9.0339151 9.8144531 8.8378906 C 9.808557 8.7124191 9.7899068 8.5031694 9.7714844 8.3691406 C 9.7513739 8.2228304 9.7384468 8.1402783 9.7070312 8.0820312 C 9.6913235 8.0529078 9.6670382 8.0308616 9.6386719 8.0195312 C 9.6103056 8.0082011 9.5821189 8.0058594 9.5507812 8.0058594 z "
       transform="matrix(3.2999444,0,0,3.2999444,9.036329,7.5006213)"
       d="m 9.5507812,7.9355469 c -0.032622,0 -0.072158,6.082e-4 -0.1152343,0.017578 -0.049183,0.019376 -0.083825,0.056409 -0.1054688,0.099609 -0.039032,0.077907 -0.043775,0.1639628 -0.054687,0.3085937 C 9.2464486,8.7449268 9.1063477,9.1263311 8.9746094,9.265625 8.9093663,9.3346099 8.8610968,9.3691025 8.7792969,9.4003906 8.6989744,9.4311136 8.5811648,9.4539791 8.3945312,9.4765625 8.1111525,9.5108522 7.9835505,9.5406702 7.8203125,9.6152344 7.632499,9.7010245 7.5708112,9.71442 7.3652344,9.7246094 L 7.171875,9.734375 c -0.058713,0.00339 -0.1114981,0.058282 -0.1113281,0.1171875 v 0.8808595 0.878906 c -5.487e-4,0.05652 0.047418,0.108275 0.1035156,0.115234 l 0.099609,0.01172 a 0.06961532,0.06961532 0 0 0 0.00586,0.002 c 0.1302772,0.01435 0.2894994,0.07032 0.5449219,0.208985 0.3029305,0.164455 0.4299459,0.218116 0.6171875,0.251953 0.1438744,0.026 0.4135891,0.05484 0.6328125,0.06836 0.040238,0.0025 0.1219339,0.002 0.2421875,0.002 0.1203827,-3.8e-5 0.2706859,-3.98e-4 0.4257813,-0.002 0.5557981,-0.0056 0.8948521,-0.02008 1.3769531,-0.0625 0.108922,-0.0096 0.172901,-0.01628 0.224609,-0.02734 0.05668,-0.01213 0.0998,-0.03906 0.128907,-0.06641 0.105676,-0.09927 0.109331,-0.269571 0.0059,-0.373047 l -0.04102,-0.04101 c -0.02163,-0.02159 -0.05147,-0.03526 -0.08203,-0.03516 h -0.513672 -0.396484 v -0.05469 -0.05664 h 0.394531 c 0.245913,0 0.371786,-6.8e-4 0.451172,-0.0059 0.03854,-0.0025 0.07003,-0.0057 0.101562,-0.01563 0.03249,-0.01022 0.05586,-0.02616 0.07227,-0.03906 0.06183,-0.04865 0.08738,-0.122055 0.08984,-0.1875 0.0025,-0.06649 -0.01869,-0.136451 -0.07031,-0.191407 a 0.06961532,0.06961532 0 0 0 0,-0.002 l -0.0332,-0.03516 c -0.02081,-0.02335 -0.05273,-0.03791 -0.08398,-0.03906 a 0.06961532,0.06961532 0 0 0 -0.002,0 h -0.519531 -0.400391 v -0.06445 -0.06641 h 0.394531 c 0.245581,0 0.371575,7.43e-4 0.451172,-0.0039 0.03929,-0.0023 0.06944,-0.0065 0.09961,-0.01563 0.03334,-0.01008 0.05823,-0.02648 0.07422,-0.03906 0.06183,-0.04865 0.08738,-0.122055 0.08984,-0.1875 0.0025,-0.06649 -0.01869,-0.13645 -0.07031,-0.191406 a 0.06961532,0.06961532 0 0 0 0,-0.002 l -0.0332,-0.03516 c -0.02081,-0.02335 -0.05273,-0.03791 -0.08398,-0.03906 a 0.06961532,0.06961532 0 0 0 -0.002,0 h -0.519531 -0.400391 v -0.06641 -0.06445 h 0.394531 c 0.245581,0 0.371574,7.42e-4 0.451172,-0.0039 0.03929,-0.0023 0.06945,-0.0065 0.09961,-0.01562 0.03334,-0.01009 0.05823,-0.02649 0.07422,-0.03906 0.06303,-0.04955 0.08989,-0.12372 0.0918,-0.191406 0.0019,-0.068699 -0.0234,-0.1420612 -0.08008,-0.1953128 -0.01206,-0.011335 -0.03776,-0.036463 -0.08203,-0.048828 -0.03626,-0.010126 -0.07116,-0.012913 -0.126954,-0.015625 -0.114172,-0.00555 -0.321638,-0.00763 -0.732421,-0.00977 l -0.7089848,-0.00195 v -0.074219 c 3.25e-4,-0.1214633 0.011774,-0.2414641 0.037109,-0.375 0.034575,-0.1822294 0.040543,-0.2592951 0.03125,-0.4570312 C 9.8787168,8.7052626 9.858734,8.4968078 9.8398438,8.359375 9.8196663,8.2125775 9.8082509,8.1242388 9.7675781,8.0488281 9.7446078,8.0062391 9.7086043,7.9728695 9.6640625,7.9550781 9.6240135,7.9390817 9.5855866,7.9355469 9.5507812,7.9355469 Z" />
    <circle
       style="fill:#d8ad4f;fill-opacity:1;stroke:none;stroke-width:0.917363;stroke-linecap:round;stroke-linejoin:bevel;stroke-opacity:1"
       id="circle53565"
       cx="25.943285"
       cy="11.409659"
       r="11.409659" />
    <circle
       style="fill:#d8ad4f;fill-opacity:1;stroke:none;stroke-width:0.568707;stroke-linecap:round;stroke-linejoin:bevel;stroke-opacity:1"
       id="circle51845"
       cx="47.874001"
       cy="16.172569"
       r="7.073278" />
    <rect
       style="fill:#d29f32;fill-opacity:1;stroke:#1a1a1a;stroke-width:0.436555;stroke-linecap:round;stroke-linejoin:miter;stroke-miterlimit:4;stroke-dasharray:none;stroke-opacity:1;paint-order:markers fill stroke"
       id="rect6633"
       width="11.936693"
       height="11.936693"
       x="18.136969"
       y="37.036716" />
    <path
       style="fill:#d8ad4f;fill-opacity:1;stroke:none;stroke-width:0.0078125;stroke-linecap:round;stroke-linejoin:bevel;stroke-opacity:1"
       sodipodi:type="inkscape:offset"
       inkscape:radius="0.011692992"
       inkscape:original="M 6.3125 4.1523438 L 6.3144531 4.3300781 L 6.3144531 4.5058594 L 6.3984375 4.53125 C 6.4439125 4.545431 6.482095 4.556427 6.484375 4.5566406 C 6.486648 4.5568526 6.5256536 4.545678 6.5722656 4.53125 L 6.6582031 4.5058594 L 6.6582031 4.328125 L 6.6601562 4.1523438 L 6.4863281 4.1523438 L 6.3125 4.1523438 z "
       xlink:href="#path28148"
       id="path29434"
       inkscape:href="#path28148"
       d="m 6.3125,4.140625 a 0.01169416,0.01169416 0 0 0 -0.011719,0.011719 l 0.00195,0.1777343 v 0.1757813 a 0.01169416,0.01169416 0 0 0 0.00781,0.011719 l 0.083984,0.025391 c 0.022805,0.00711 0.04496,0.013009 0.060547,0.017578 0.00779,0.00228 0.012884,0.00455 0.017578,0.00586 0.00235,6.529e-4 0.00439,0.00157 0.00586,0.00195 0,0 0.00195,0 0.00195,0 0,0 0.00195,0 0.00195,0 7.1e-5,6.6e-6 0.00376,1.53e-5 0.00391,0 7.516e-4,-1.313e-4 0.0031,1.831e-4 0.00391,0 0.00161,-3.664e-4 0.00343,-0.00131 0.00586,-0.00195 0.00485,-0.00128 0.011549,-0.00356 0.019531,-0.00586 0.015964,-0.0046 0.037175,-0.010344 0.060547,-0.017578 l 0.085937,-0.025391 a 0.01169416,0.01169416 0 0 0 0.00781,-0.011719 V 4.328125 L 6.671875,4.1523438 A 0.01169416,0.01169416 0 0 0 6.6601562,4.140625 H 6.4863281 Z"
       transform="matrix(4.298878,0,0,4.298878,-0.35935338,1.2084988)" />
    <path
       style="fill:#d29f32;fill-opacity:1;stroke:none;stroke-width:0.03125;stroke-linecap:round;stroke-linejoin:bevel;stroke-opacity:1"
       sodipodi:type="inkscape:offset"
       inkscape:radius="0.12815602"
       inkscape:original="M 24.806641 15.003906 C 24.806641 15.014891 24.949055 16.227375 25.125 17.697266 C 25.300944 19.167158 25.445312 20.443323 25.445312 20.533203 C 25.445313 20.778377 23.977816 22.289822 23.740234 22.289062 C 23.606718 22.288635 23.372154 22.087697 22.798828 21.486328 C 22.352392 21.018056 22.035475 20.628092 22.035156 20.544922 C 22.034855 20.466725 22.17813 19.202524 22.353516 17.736328 C 22.528902 16.270134 22.671598 15.050021 22.671875 15.025391 C 22.672154 15.000771 22.426062 15.027514 22.123047 15.083984 C 19.25979 15.61763 17.091605 17.344411 16.341797 19.6875 L 16.183594 20.179688 L 16.744141 20.71875 C 18.328125 22.241892 20.380023 23.14422 22.957031 23.451172 C 23.462041 23.511325 24.975228 23.416 25.683594 23.279297 C 27.05231 23.015163 28.262636 22.524205 29.412109 21.765625 C 30.090036 21.318235 31.100702 20.479629 31.222656 20.261719 C 31.305783 20.113177 31.115015 19.476401 30.798828 18.841797 C 29.840083 16.917534 27.787032 15.502746 25.333984 15.076172 C 25.043649 15.025672 24.806641 14.992856 24.806641 15.003906 z M 27.511719 18.517578 C 28.838117 18.517578 28.787109 18.464974 28.787109 19.822266 C 28.787109 21.015456 28.803966 20.985196 28.033203 21.212891 C 27.755298 21.294986 27.51535 21.361075 27.5 21.359375 C 27.271823 21.333344 26.383136 20.979942 26.316406 20.888672 C 26.255176 20.804915 26.228516 20.470778 26.228516 19.830078 C 26.228516 18.990267 26.242878 18.873044 26.375 18.705078 C 26.521569 18.518747 26.526796 18.517578 27.511719 18.517578 z M 23.740234 22.427734 C 23.818431 22.427734 23.945238 22.492113 24.023438 22.570312 C 24.101635 22.64851 24.166016 22.777269 24.166016 22.855469 C 24.166016 22.933665 24.101637 23.060472 24.023438 23.138672 C 23.94524 23.216869 23.818434 23.28125 23.740234 23.28125 C 23.662038 23.28125 23.533278 23.216872 23.455078 23.138672 C 23.376881 23.060476 23.3125 22.933669 23.3125 22.855469 C 23.3125 22.777272 23.376878 22.648512 23.455078 22.570312 C 23.533274 22.492115 23.662034 22.427734 23.740234 22.427734 z "
       xlink:href="#path21617"
       id="path27992"
       inkscape:href="#path21617"
       transform="translate(0.28435287)"
       d="m 24.816406,14.873047 c -0.0075,6.6e-5 -0.01435,5.92e-4 -0.03125,0.0039 -0.0042,8.29e-4 -0.01528,0.0038 -0.01563,0.0039 -3.41e-4,1.1e-4 -0.02516,0.01159 -0.02539,0.01172 -2.29e-4,1.3e-4 -0.03895,0.03305 -0.03906,0.0332 -5.7e-5,7.6e-5 -0.0195,0.03508 -0.01953,0.03516 -2.9e-5,8e-5 -0.0078,0.04288 -0.0078,0.04297 0,6.87e-4 0.0028,0.01914 0.0039,0.0293 0.0011,0.01016 0.0018,0.02434 0.0039,0.04297 0.0043,0.03725 0.01148,0.09297 0.01953,0.162109 0.01611,0.138285 0.03956,0.335922 0.06836,0.580078 0.05761,0.488313 0.136627,1.159509 0.224609,1.894532 0.08794,0.734707 0.168523,1.419988 0.226562,1.933593 0.02902,0.256803 0.05214,0.470355 0.06836,0.625 0.0081,0.07732 0.01337,0.140088 0.01758,0.185547 0.0042,0.04546 0.0059,0.08209 0.0059,0.07617 0,-0.03328 -0.0067,0.02029 -0.04297,0.07813 -0.03623,0.05784 -0.09144,0.133076 -0.160157,0.21875 -0.137427,0.171348 -0.327385,0.382078 -0.523437,0.583984 -0.196053,0.201907 -0.400182,0.395739 -0.566406,0.53711 -0.08311,0.07069 -0.157054,0.128946 -0.212891,0.166016 -0.05584,0.03707 -0.108767,0.04284 -0.07031,0.04297 -0.0027,-8e-6 -0.08287,-0.02523 -0.222656,-0.144531 -0.139784,-0.119304 -0.341394,-0.317661 -0.626953,-0.617187 -0.221409,-0.232239 -0.409198,-0.445013 -0.541016,-0.607422 -0.06591,-0.08121 -0.117523,-0.151447 -0.15039,-0.201172 -0.01602,-0.02424 -0.02925,-0.0428 -0.03516,-0.05469 -1.5e-4,-3.03e-4 1.44e-4,-0.0017 0,-0.002 4.98e-4,-0.0034 0.0024,-0.02183 0.0059,-0.05859 0.0041,-0.04405 0.0095,-0.105708 0.01758,-0.18164 0.01607,-0.151866 0.03953,-0.362827 0.06836,-0.617188 0.05766,-0.508721 0.136944,-1.190957 0.22461,-1.923828 0.0877,-0.73319 0.166962,-1.404975 0.224609,-1.896484 0.02882,-0.245755 0.05218,-0.446946 0.06836,-0.587891 0.01618,-0.140945 0.02727,-0.234077 0.02734,-0.240234 9e-6,-7.7e-4 -0.02492,-0.07746 -0.02539,-0.07813 -2.34e-4,-3.35e-4 -0.01918,-0.02313 -0.01953,-0.02344 -3.5e-4,-3.1e-4 -0.01368,-0.01008 -0.01953,-0.01367 -0.02339,-0.01436 -0.03703,-0.01708 -0.04883,-0.01953 -0.0236,-0.0049 -0.04024,-0.0039 -0.05859,-0.0039 -0.0367,-9.6e-5 -0.07861,0.0022 -0.130859,0.0078 -0.104492,0.01122 -0.244369,0.03184 -0.398438,0.06055 -2.900754,0.540635 -5.112811,2.297422 -5.878906,4.691407 L 16.0625,20.140625 a 0.12816884,0.12816884 0 0 0 0.0332,0.130859 l 0.560547,0.539063 c 1.605614,1.543941 3.686792,2.458082 6.285156,2.767578 0.550655,0.06559 2.034802,-0.03279 2.765625,-0.173828 1.383925,-0.267069 2.612617,-0.763892 3.775391,-1.53125 0.345251,-0.227845 0.769147,-0.552184 1.125,-0.847656 0.177927,-0.147737 0.339258,-0.287062 0.464844,-0.40625 0.125585,-0.119189 0.211497,-0.205185 0.261718,-0.294922 0.05004,-0.08942 0.04179,-0.171872 0.0293,-0.273438 -0.0125,-0.101566 -0.04028,-0.22033 -0.08008,-0.353515 -0.0796,-0.266371 -0.208005,-0.588702 -0.369141,-0.91211 -0.98013,-1.967184 -3.070314,-3.403237 -5.558593,-3.835937 -0.146351,-0.02546 -0.279058,-0.04514 -0.376953,-0.05859 -0.04895,-0.0067 -0.08828,-0.01296 -0.119141,-0.01563 -0.01543,-0.0013 -0.02788,-0.0021 -0.04297,-0.002 z m 2.695313,3.773437 c 0.332446,0 0.578044,-0.0035 0.748047,0.01172 0.170002,0.01523 0.250755,0.04663 0.294922,0.0918 0.04417,0.04517 0.07682,0.131941 0.0918,0.306641 0.01498,0.174699 0.01172,0.425499 0.01172,0.765625 0,0.597198 -0.01006,0.881282 -0.07227,0.996093 -0.0311,0.05741 -0.06955,0.09137 -0.16211,0.132813 -0.09255,0.04144 -0.234426,0.08157 -0.427734,0.138672 -0.138303,0.04086 -0.265834,0.07726 -0.361328,0.103515 -0.04775,0.01313 -0.08799,0.02445 -0.115235,0.03125 -0.0081,0.002 -0.01196,0.0026 -0.01758,0.0039 -0.03818,-0.0056 -0.12674,-0.02717 -0.234375,-0.0625 -0.113107,-0.03712 -0.24567,-0.08606 -0.373047,-0.136719 -0.127376,-0.05065 -0.249697,-0.104071 -0.341797,-0.148438 -0.04605,-0.02218 -0.0834,-0.04125 -0.109375,-0.05664 -0.02598,-0.01539 -0.04346,-0.03911 -0.02344,-0.01172 0.006,0.0083 -0.0082,-0.01572 -0.01758,-0.06055 -0.0094,-0.04483 -0.0185,-0.109564 -0.02539,-0.193359 -0.01378,-0.167591 -0.01953,-0.409943 -0.01953,-0.728516 0,-0.419175 0.0033,-0.658249 0.02148,-0.798828 0.0182,-0.140579 0.03916,-0.171724 0.09766,-0.246094 0.07291,-0.09269 0.05443,-0.09746 0.173829,-0.117187 0.119401,-0.01973 0.368917,-0.02148 0.861328,-0.02148 z m -3.771485,3.910157 c 0.0079,0 0.139274,0.04943 0.19336,0.103515 0.02666,0.02666 0.05608,0.06919 0.07617,0.109375 0.0201,0.04019 0.02734,0.08201 0.02734,0.08594 0,0.0079 -0.04943,0.139273 -0.103515,0.193359 -0.05409,0.05408 -0.185499,0.103516 -0.19336,0.103516 -0.0039,0 -0.04575,-0.0072 -0.08594,-0.02734 -0.04019,-0.0201 -0.08271,-0.04951 -0.109375,-0.07617 -0.05408,-0.05408 -0.103516,-0.185499 -0.103516,-0.193359 0,-0.0039 0.0072,-0.04575 0.02734,-0.08594 0.0201,-0.04019 0.04951,-0.08271 0.07617,-0.109375 0.02666,-0.02666 0.06919,-0.05608 0.109375,-0.07617 0.04019,-0.0201 0.08201,-0.02734 0.08594,-0.02734 z" />
    <path
       id="path29615"
       style="fill:#d8ad4f;fill-opacity:1;stroke:none;stroke-width:0.13434;stroke-linecap:round;stroke-linejoin:bevel;stroke-opacity:1"
       d="m 25.096937,14.870353 c -0.0084,0.0028 -0.05265,0.02107 -0.06665,0.02665 -2.31e-4,1.28e-4 -0.04209,0.03319 -0.04221,0.03332 l 0.09997,0.07553 h -0.124406 c 0,6.87e-4 -0.0011,0.02313 0,0.03332 0.0011,0.01019 0.0045,0.02356 0.0067,0.04221 0.0043,0.03731 0.0097,0.09072 0.01775,0.159949 0.01616,0.138454 0.03774,0.33321 0.06665,0.577591 0.05778,0.488763 0.138613,1.164378 0.226593,1.899388 0.08794,0.734665 0.168869,1.416405 0.226594,1.93049 0.02885,0.257042 0.05054,0.473856 0.06665,0.628686 0.008,0.07741 0.01358,0.138867 0.01775,0.184383 0.0042,0.04552 0.0089,0.0813 0.0089,0.07553 0,-0.03323 -0.006,0.01771 -0.04221,0.07553 -0.0362,0.0578 -0.100151,0.134305 -0.168834,0.21993 -0.137367,0.171246 -0.323861,0.384703 -0.519832,0.586478 -0.195973,0.201777 -0.39588,0.396331 -0.562042,0.537605 -0.08308,0.07063 -0.16411,0.131791 -0.219931,0.168834 -0.05582,0.03706 -0.105051,0.04209 -0.06664,0.04221 -5.38e-4,-2e-6 -0.01277,-0.0047 -0.02889,-0.01333 v 0.408758 c 0.01548,-0.0059 0.02695,-0.0089 0.02889,-0.0089 0.0038,0 0.04413,0.0132 0.08442,0.03332 0.04028,0.02016 0.08222,0.0489 0.108852,0.07553 0.02665,0.02665 0.05539,0.06857 0.07553,0.108852 0.02016,0.04028 0.03332,0.08058 0.03332,0.08442 0,0.0038 -0.0132,0.04191 -0.03332,0.0822 -0.02016,0.04028 -0.0489,0.08444 -0.07553,0.111074 -0.02665,0.02665 -0.06857,0.05539 -0.108852,0.07553 -0.04028,0.02016 -0.08058,0.03332 -0.08442,0.03332 -0.0019,0 -0.01341,-0.003 -0.02889,-0.0089 v 0.446567 c 0.663729,-0.01685 1.505903,-0.09094 2.001623,-0.186606 1.384289,-0.267141 2.607402,-0.770109 3.769897,-1.537283 0.345346,-0.227905 0.77177,-0.551142 1.126304,-0.846394 0.177268,-0.147628 0.336997,-0.294099 0.462073,-0.413199 0.125076,-0.119101 0.209871,-0.203814 0.259915,-0.29324 0.04979,-0.08898 0.0454,-0.167325 0.03332,-0.2688 -0.01208,-0.101475 -0.04512,-0.21788 -0.08442,-0.350999 -0.07858,-0.266235 -0.198656,-0.591684 -0.359876,-0.915263 -0.980179,-1.967284 -3.070075,-3.397202 -5.55821,-3.829878 -0.145926,-0.02536 -0.279625,-0.0435 -0.377657,-0.05776 -0.04902,-0.0071 -0.09575,-0.01474 -0.126627,-0.01775 -0.01543,-0.0015 -0.02717,-0.0088 -0.04222,-0.0089 z m 2.703574,3.778783 c 0.332501,0 0.577105,0.0028 0.746426,0.01776 0.169324,0.01492 0.2524,0.04673 0.295462,0.09108 0.04306,0.04435 0.06787,0.127548 0.08219,0.302125 0.01432,0.174578 0.01775,0.423955 0.01775,0.764198 0,0.597437 -0.01436,0.88416 -0.07553,0.999679 -0.03061,0.05776 -0.06825,0.09173 -0.159948,0.133291 -0.0917,0.04157 -0.22668,0.07844 -0.419867,0.135513 -0.137629,0.04067 -0.272562,0.07472 -0.368771,0.09997 -0.0481,0.01264 -0.08127,0.02687 -0.108852,0.03332 -0.0073,0.0017 -0.01238,0.0077 -0.01775,0.0089 -0.0368,-0.005 -0.132526,-0.03074 -0.242147,-0.06664 -0.113138,-0.0371 -0.243579,-0.08492 -0.370989,-0.135514 -0.127415,-0.05059 -0.252211,-0.106741 -0.344336,-0.151062 -0.04606,-0.02214 -0.08287,-0.04239 -0.108852,-0.05776 -0.01298,-0.0077 -0.01956,-0.01414 -0.02442,-0.01775 0.0012,1.79e-4 -0.0099,-0.01006 -0.01776,-0.04887 -0.0091,-0.04471 -0.01801,-0.109471 -0.02442,-0.193269 -0.01285,-0.167596 -0.01776,-0.412039 -0.01776,-0.730876 0,-0.419364 0.0093,-0.656675 0.02665,-0.797521 0.01737,-0.140844 0.03297,-0.177131 0.09108,-0.251028 0.07226,-0.09187 0.05651,-0.09182 0.177719,-0.111075 0.121212,-0.01926 0.371634,-0.02442 0.864166,-0.02442 z" />
    <path
       id="circle53567"
       style="fill:#d29f32;fill-opacity:1;stroke:none;stroke-width:0.917363;stroke-linecap:round;stroke-linejoin:bevel;stroke-opacity:1"
       d="M 23.970588,0.17772041 A 11.409659,11.409659 0 0 0 14.533627,11.409659 11.409659,11.409659 0 0 0 23.970588,22.641598 Z" />
    <path
       id="path48599"
       style="fill:#d8ad4f;fill-opacity:1;stroke:none;stroke-width:0.13434;stroke-linecap:round;stroke-linejoin:bevel;stroke-opacity:1"
       d="m 23.970588,8.105114 v 8.770509 c 1.600116,-0.003 3.189558,-0.95584 3.903188,-2.405892 0.630784,-1.281715 0.648508,-2.653036 0.04221,-3.896523 C 27.379012,9.4719096 26.462339,8.7022496 25.396795,8.3405936 24.942598,8.1864346 24.45948,8.1046536 23.970588,8.105114 Z" />
    <path
       id="path34218"
       style="fill:#1a1a1a;fill-opacity:1;stroke-width:1.5033;stroke-linecap:round;stroke-linejoin:round"
       d="m 24.360936,22.681117 a 0.33218716,0.33218716 0 0 1 -0.332187,0.332187 0.33218716,0.33218716 0 0 1 -0.332188,-0.332187 0.33218716,0.33218716 0 0 1 0.332188,-0.332187 0.33218716,0.33218716 0 0 1 0.332187,0.332187 z" />
    <rect
       style="fill:#d8ad4f;fill-opacity:1;stroke:none;stroke-width:0.443876;stroke-linecap:round;stroke-linejoin:bevel;stroke-opacity:1"
       id="rect4968"
       width="2.3037436"
       height="11.631385"
       x="27.58494"
       y="37.184719"
       ry="0" />
    <rect
       style="fill:none;fill-opacity:1;stroke:#1a1a1a;stroke-width:0.436555;stroke-linecap:round;stroke-linejoin:miter;stroke-miterlimit:4;stroke-dasharray:none;stroke-opacity:1;paint-order:markers fill stroke"
       id="rect35030"
       width="11.936693"
       height="11.936693"
       x="18.136969"
       y="37.036716" />
    <rect
       style="fill:#d29f32;fill-opacity:1;stroke:#1a1a1a;stroke-width:0.436555;stroke-linecap:round;stroke-linejoin:miter;stroke-miterlimit:4;stroke-dasharray:none;stroke-opacity:1;paint-order:markers fill stroke"
       id="rect35474"
       width="2.2878406"
       height="9.7949171"
       x="30.083624"
       y="38.107605" />
    <rect
       style="fill:#1a1a1a;fill-opacity:1;stroke:none;stroke-width:2.32107;stroke-linecap:round;stroke-linejoin:round;stroke-miterlimit:4;stroke-dasharray:none;stroke-opacity:1;paint-order:markers fill stroke"
       id="rect41517"
       width="0.58716643"
       height="0.58716643"
       x="20.023129"
       y="47.001263"
       ry="0.29358321" />
    <rect
       style="fill:#1a1a1a;fill-opacity:1;stroke:none;stroke-width:2.32107;stroke-linecap:round;stroke-linejoin:round;stroke-miterlimit:4;stroke-dasharray:none;stroke-opacity:1;paint-order:markers fill stroke"
       id="rect41519"
       width="0.58716643"
       height="0.58716643"
       x="23.811731"
       y="47.001263"
       ry="0.29358321" />
    <rect
       style="fill:#1a1a1a;fill-opacity:1;stroke:none;stroke-width:2.32107;stroke-linecap:round;stroke-linejoin:round;stroke-miterlimit:4;stroke-dasharray:none;stroke-opacity:1;paint-order:markers fill stroke"
       id="rect41521"
       width="0.58716643"
       height="0.58716643"
       x="27.600334"
       y="47.001263"
       ry="0.29358321" />
    <path
       style="fill:none;fill-opacity:1;stroke:none;stroke-width:0.0355441;stroke-linecap:round;stroke-linejoin:bevel;stroke-opacity:1"
       d="m 22.957582,23.452131 c -2.577008,-0.306952 -4.628874,-1.209407 -6.212858,-2.732549 l -0.561345,-0.539784 0.157761,-0.49299 c 0.749808,-2.343089 2.917899,-4.06933 5.781156,-4.602976 0.303015,-0.05647 0.550706,-0.08253 0.550427,-0.05791 -2.77e-4,0.02463 -0.144003,1.244389 -0.319389,2.710583 -0.175386,1.466196 -0.318637,2.729788 -0.318336,2.807985 3.19e-4,0.08317 0.317257,0.474376 0.763693,0.942648 0.573326,0.601369 0.807348,0.800612 0.940864,0.801039 0.237582,7.6e-4 1.706117,-1.510003 1.706117,-1.755177 0,-0.08988 -0.143952,-1.366059 -0.319896,-2.835951 -0.175945,-1.469891 -0.319897,-2.681519 -0.319897,-2.692504 0,-0.01105 0.237543,0.02132 0.527878,0.07182 2.453048,0.426574 4.507256,1.84199 5.466001,3.766253 0.316187,0.634604 0.505212,1.269791 0.422085,1.418333 -0.121954,0.21791 -1.131523,1.057624 -1.80945,1.505014 -1.149473,0.75858 -2.359508,1.250013 -3.728224,1.514147 -0.708366,0.136703 -2.221577,0.232166 -2.726587,0.172013 z m 1.066324,-0.312916 c 0.0782,-0.0782 0.142177,-0.206157 0.142177,-0.284353 0,-0.0782 -0.06398,-0.206157 -0.142177,-0.284354 -0.0782,-0.0782 -0.206157,-0.142177 -0.284354,-0.142177 -0.0782,0 -0.206157,0.06398 -0.284353,0.142177 -0.0782,0.0782 -0.142177,0.206157 -0.142177,0.284354 0,0.0782 0.06398,0.206157 0.142177,0.284353 0.0782,0.0782 0.206157,0.142177 0.284353,0.142177 0.0782,0 0.206157,-0.06398 0.284354,-0.142177 z m 4.00882,-1.926473 c 0.770763,-0.227695 0.75409,-0.196958 0.75409,-1.390148 0,-1.357292 0.05197,-1.304114 -1.274428,-1.304114 -0.984923,0 -0.990843,9.75e-4 -1.137412,0.187306 -0.132122,0.167966 -0.147335,0.284014 -0.147335,1.123825 0,0.6407 0.02829,0.975188 0.08952,1.058945 0.06673,0.09127 0.954225,0.44424 1.182402,0.470271 0.01535,0.0017 0.255254,-0.06399 0.533159,-0.146085 z"
       id="path21617" />
    <circle
       style="fill:none;stroke:#1a1a1a;stroke-width:0.568707;stroke-linecap:round;stroke-linejoin:bevel;stroke-miterlimit:4;stroke-dasharray:none"
       id="path1174"
       cx="46.805138"
       cy="16.752214"
       r="7.1379085" />
    <circle
       style="fill:none;stroke:#1a1a1a;stroke-width:0.520169;stroke-linecap:round;stroke-linejoin:bevel;stroke-miterlimit:4;stroke-dasharray:none"
       id="circle1292"
       cx="46.805138"
       cy="15.966239"
       r="3.1683488" />
    <path
       id="circle4004"
       style="fill:none;stroke:#1a1a1a;stroke-width:0.516046;stroke-linecap:round;stroke-linejoin:bevel;stroke-miterlimit:4;stroke-dasharray:none"
       d="m 46.80546,19.315845 a 4.7514514,3.5944985 0 0 0 -4.620932,2.765296 7.1279335,7.5297922 0 0 0 4.620932,1.802129 7.1279335,7.5297922 0 0 0 4.620928,-1.804473 4.7514514,3.5944985 0 0 0 -4.620928,-2.762952 z" />
    <circle
       style="fill:none;stroke:#1a1a1a;stroke-width:0.568707;stroke-linecap:round;stroke-linejoin:bevel;stroke-miterlimit:4;stroke-dasharray:none"
       id="circle6268"
       cx="24.092342"
       cy="12.76247"
       r="4.3135829" />
    <path
       id="path6270"
       style="fill:none;stroke:#1a1a1a;stroke-width:0.568707;stroke-linecap:round;stroke-linejoin:bevel;stroke-miterlimit:4;stroke-dasharray:none"
       d="m 24.028788,17.295938 c -2.996617,0.0011 -5.599942,1.896698 -6.291221,4.102511 1.789981,1.492763 3.984775,2.167085 6.291221,2.169175 2.306827,-0.003 4.519435,-0.693033 6.291215,-2.169175 -0.692945,-2.204544 -3.295845,-4.101733 -6.291215,-4.102511 z"
       sodipodi:nodetypes="ccccc" />
    <circle
       style="fill:#d29f32;fill-opacity:1;stroke:none;stroke-width:0.568707;stroke-linecap:round;stroke-linejoin:bevel;stroke-opacity:1"
       id="circle4822"
       cx="8.491128"
       cy="30.887831"
       r="7.073278" />
    <g
       id="g4830"
       transform="matrix(4.298878,0,0,4.298878,-62.34828,7.0377322)">
      <circle
         style="fill:none;stroke:#1a1a1a;stroke-width:0.132292;stroke-linecap:round;stroke-linejoin:bevel;stroke-miterlimit:4;stroke-dasharray:none"
         id="circle4824"
         cx="16.229942"
         cy="5.6828184"
         r="1.660412" />
      <circle
         style="fill:none;stroke:#1a1a1a;stroke-width:0.121001;stroke-linecap:round;stroke-linejoin:bevel;stroke-miterlimit:4;stroke-dasharray:none"
         id="circle4826"
         cx="16.229942"
         cy="5.4999857"
         r="0.73701763" />
      <path
         id="path4828"
         style="fill:none;stroke:#1a1a1a;stroke-width:0.120042;stroke-linecap:round;stroke-linejoin:bevel;stroke-miterlimit:4;stroke-dasharray:none"
         d="M 16.230018,6.2791672 A 1.1052771,0.83614806 0 0 0 15.155102,6.9224271 1.6580916,1.7515715 0 0 0 16.230018,7.3416363 1.6580916,1.7515715 0 0 0 17.304933,6.921882 1.1052771,0.83614806 0 0 0 16.230018,6.2791672 Z" />
    </g>
    <circle
       style="fill:none;fill-opacity:1;stroke:#1a1a1a;stroke-width:0.568707;stroke-linecap:round;stroke-linejoin:bevel;stroke-miterlimit:4;stroke-dasharray:none"
       id="path5954"
       cx="24.028749"
       cy="13.388438"
       r="10.199048" />
    <path
       style="fill:none;fill-opacity:1;stroke:#1a1a1a;stroke-width:0.284353;stroke-linecap:round;stroke-linejoin:miter;stroke-miterlimit:4;stroke-dasharray:none"
       d="m 25.72951,21.020164 -0.338993,-0.107017 -3.1e-4,-0.741438 -3.09e-4,-0.741437 h 0.730214 0.730215 l -0.01393,0.739435 -0.01393,0.739435 -0.3016,0.09117 c -0.165881,0.05014 -0.335532,0.0992 -0.377003,0.109019 -0.04149,0.0098 -0.227948,-0.03031 -0.414391,-0.08917 z"
       id="path8817" />
    <path
       style="fill:none;stroke:#000000;stroke-width:0.568707;stroke-linecap:butt;stroke-linejoin:miter;stroke-miterlimit:4;stroke-dasharray:none;stroke-opacity:1"
       d="M 24.062955,28.113556 H 34.193026"
       id="path9103" />
    <path
       style="fill:none;stroke:#000000;stroke-width:0.568707;stroke-linecap:butt;stroke-linejoin:miter;stroke-miterlimit:4;stroke-dasharray:none;stroke-opacity:1"
       d="M 22.285749,30.459468 H 34.193026"
       id="path9105" />
    <path
       style="fill:none;stroke:#000000;stroke-width:0.568707;stroke-linecap:butt;stroke-linejoin:miter;stroke-miterlimit:4;stroke-dasharray:none;stroke-opacity:1"
       d="M 22.285749,32.805382 H 34.193026"
       id="path9187" />
    <rect
       style="fill:#1a1a1a;fill-opacity:1;stroke:none;stroke-width:2.2481;stroke-linecap:round;stroke-linejoin:round;stroke-miterlimit:4;stroke-dasharray:none;stroke-opacity:1;paint-order:markers fill stroke"
       id="rect9189"
       width="0.5687058"
       height="0.5687058"
       x="22.285749"
       y="27.829203"
       ry="0.2843529" />
  </g>
</svg>
