<svg viewBox="0 0 42.942 48" xmlns="http://www.w3.org/2000/svg">
	<g fill="#d29f32" stroke="#1a1a1a" stroke-linecap="round">
		<path d="m7.9144 18.379c-0.47857 1.0196 0.39453 2.4825-0.5919 3.026-0.98643 0.54354-1.6317-0.87282-2.7493-1.0129-1.1175-0.14009-2.3641 1.0392-3.1858 0.26905-0.82179-0.7702 0.64621-1.9297 0.43406-3.0358-0.21215-1.1061-2.0392-1.8191-1.5607-2.8387s2.1943-0.069433 3.1808-0.61302c0.98643-0.54359 0.94052-2.4138 2.0581-2.2738 1.1175 0.14007 1.0067 1.8526 1.8285 2.6228 0.82179 0.7702 2.3237 0.36139 2.5358 1.4675 0.21215 1.1061-1.4711 1.3692-1.9496 2.3888z" stroke-width=".5"/>
		<path d="m13.51 11.489c-0.923 0.64551-0.89498 2.3488-2.0211 2.3286-1.1261-0.020187-0.97972-1.5698-1.8788-2.2482-0.89911-0.67832-2.5675-0.27706-2.8962-1.3543-0.32867-1.0773 1.5218-1.351 1.8892-2.4157s-0.86151-2.5933 0.061499-3.2389 1.937 1.0333 3.0632 1.0536c1.1261 0.020281 2.0183-1.6241 2.9174-0.94577 0.89911 0.67832-0.05042 2.1079 0.2783 3.1851 0.32867 1.0773 1.8346 1.4713 1.4673 2.536-0.36731 1.0647-1.9576 0.45401-2.8807 1.0995z" stroke-width=".5"/>
		<path d="m21.341 8.6382c-1.1263-1.4e-6 -2.0796 1.4119-2.9908 0.74992-0.91122-0.66203 0.096756-1.8479-0.25121-2.9191-0.34806-1.0712-1.9453-1.6985-1.5972-2.7697s2.0214-0.23492 2.9326-0.89695 0.78029-2.6189 1.9066-2.6189c1.1263 1.41e-6 0.99521 1.9569 1.9064 2.6189s2.5848-0.17424 2.9328 0.89695c0.34806 1.0712-1.2493 1.6985-1.5974 2.7697-0.34806 1.0712 0.66016 2.2571-0.25102 2.9191-0.91122 0.66203-1.8645-0.74992-2.9908-0.74992z" stroke-width=".5"/>
		<path d="m35.03 18.379c0.47857 1.0196-0.39453 2.4825 0.5919 3.026 0.98643 0.54354 1.6317-0.87282 2.7493-1.0129 1.1176-0.14009 2.3641 1.0392 3.1858 0.26905 0.82179-0.7702-0.64621-1.9297-0.43406-3.0358 0.21215-1.1061 2.0392-1.8191 1.5607-2.8387-0.47857-1.0196-2.1944-0.06943-3.1808-0.61302-0.98643-0.54359-0.94047-2.4138-2.058-2.2738-1.1176 0.14007-1.0067 1.8526-1.8285 2.6228-0.82179 0.7702-2.3237 0.36139-2.5358 1.4675-0.21215 1.1061 1.4711 1.3692 1.9496 2.3888z" stroke-width=".5"/>
		<path d="m29.434 11.489c0.92301 0.64551 0.89498 2.3488 2.0211 2.3286 1.1261-0.02019 0.97972-1.5698 1.8788-2.2482 0.89911-0.67832 2.5675-0.27706 2.8962-1.3543 0.32867-1.0773-1.5218-1.351-1.8892-2.4157-0.36731-1.0647 0.86151-2.5933-0.0615-3.2389s-1.937 1.0333-3.0632 1.0536c-1.1261 0.020281-2.0183-1.6241-2.9174-0.94577-0.89911 0.67832 0.05042 2.1079-0.2783 3.1851-0.32867 1.0773-1.8346 1.4713-1.4672 2.536 0.3673 1.0647 1.9576 0.45401 2.8807 1.0995z" stroke-width=".5"/>
		<g transform="matrix(1.2421 0 0 1.2421 -188.13 47.894)" stroke-width=".5">
			<path d="m168.74-12.829a10.842 10.842 0 0 0-9.8598 6.333 10.842 10.842 0 0 0 9.8598 6.333 10.842 10.842 0 0 0 9.8565-6.3297 10.842 10.842 0 0 0-9.8565-6.3363z"/>
			<circle cx="168.74" cy="-19.345" r="6.363"/>
		</g>
	</g>
</svg>
