<svg version="1.1" viewBox="0 0 44.39 16.665" xmlns="http://www.w3.org/2000/svg">
	<g>
		<path d="m20.684 1.7458c-0.15023 4.8e-4 -0.23243 2e-3 -0.23243 2e-3v12.399h11.707c-7.59e-4 -0.01432-0.0014-0.02865-2e-3 -0.04297 2.66e-4 -1.8319 1.4851-3.3168 3.3165-3.3165 1.8306 7.8e-4 3.3143 1.4853 3.3145 3.3165-5.74e-4 0.01432-0.0012 0.02865-2e-3 0.04297h5.094c0.69349-0.0613 0.99304-5.0884-1.2012-6.2365-2.0844-1.0336-6.2678-1.3074-8.5492-1.5664 0 0-3.4583-2.1634-6.1466-3.5567-1.9206-0.99544-6.2474-1.0444-7.299-1.041z" fill="#d29f32" style="paint-order:markers fill stroke"/>
		<path d="m34.372 6.369v4.6056c0.34462-0.12129 0.7155-0.18757 1.1016-0.1875 1.8306 7.79e-4 3.3143 1.4853 3.3145 3.3165-5.75e-4 0.01436-0.0012 0.02872-2e-3 0.04297h5.094c0.69335-0.061307 0.99289-5.0884-1.2013-6.2365-2.0171-1.0002-5.9842-1.2887-8.3068-1.541z" fill="#d8ad4f" style="paint-order:markers fill stroke"/>
		<path d="m1.2149 7.5311c-0.66703 0-1.2149 1.036-1.2149 2.295v2.0235c0 1.259 0.54784 2.2969 1.2149 2.2969h4.8204a3.3159 3.317 0 0 1-0.00195-0.04297 3.3159 3.317 0 0 1 3.3165-3.3165 3.3159 3.317 0 0 1 3.3165 3.3165 3.3159 3.317 0 0 1-2e-3 0.04297h6.0216v-6.6154z" color="#000000" fill="#d29f32"/>
		<path d="m6.2462 7.5311v5.4103a3.3159 3.317 0 0 1 3.1036-2.1543 3.3159 3.317 0 0 1 3.3165 3.3165 3.3159 3.317 0 0 1-2e-3 0.04297h6.0216v-6.6154z" color="#000000" fill="#d8ad4f"/>
		<path d="m19.569 0v14.396z" color="#000000" fill="#1a1a1a" stroke="#d29f32" stroke-linecap="round" stroke-linejoin="round" stroke-width=".50001"/>
		<path d="m22.965 4.1924s2.5525-0.069722 4.0088 0.60941c2.7671 1.2904 4.5779 2.6935 4.5779 2.6935h-8.5867z" fill="none" stroke="#1a1a1a" stroke-linejoin="round" stroke-width=".25" style="paint-order:markers fill stroke"/>
		<ellipse cx="9.3497" cy="14.104" rx="2.5606" ry="2.5614" fill="#d29f32"/>
		<ellipse cx="9.3497" cy="14.104" rx=".99183" ry=".99213" fill="none" stroke="#1a1a1a" stroke-linejoin="round" stroke-width=".25"/>
		<ellipse cx="35.471" cy="14.104" rx="2.5606" ry="2.5614" fill="#d29f32"/>
		<ellipse cx="35.471" cy="14.104" rx=".99183" ry=".99213" fill="none" stroke="#1a1a1a" stroke-linejoin="round" stroke-width=".25"/>
	</g>
</svg>
