<svg class="svg even" viewBox="0 0 175.52 300">
	<g class="clr-tertiary" stroke="#1a1a1a">
		<path d="m155.04 186.19 4.5597-20.777-6.4029-18.527 6.4029 18.527 2.2211-10.201-8.283-25.289-83.034 34.869-6.9028 13.985 10.602-3.9956-10.602 3.9956-9.9848 18.491 92.245-39.104z"/>
		<path d="m83.271 170.95 55.212-23.406"/>
	</g>
	<g class="clr-primary" stroke="#1a1a1a">
		<path transform="matrix(.52192 -.85299 .82726 .56182 0 0)" d="m86.215 139.75a7.6476 2.8844 0 0 1-7.6476 2.8844 7.6476 2.8844 0 0 1-7.6476-2.8844 7.6476 2.8844 0 0 1 7.6476-2.8844 7.6476 2.8844 0 0 1 7.6476 2.8844z" />
	</g>
	<g class="clr-secondary" stroke="#1a1a1a">
		<path transform="matrix(.5408 -.84115 .83823 .54532 0 0)" d="m79.844 139.06a4.3037 1.4785 0 0 1-4.3037 1.4785 4.3037 1.4785 0 0 1-4.3037-1.4785 4.3037 1.4785 0 0 1 4.3037-1.4785 4.3037 1.4785 0 0 1 4.3037 1.4785z"/>
		<path d="m23.341 260.4s-1.8721-8.757 5.2899-12.748"/>
		<path d="m34.706 251.15s2.5558 6.1639-1.767 26.098c0 0 4.053-7.995 4.4097-12.283"/>
		<path d="m152.75 226.55c4.7206 11.37-6.6578 32.907-6.6578 32.907 3.1535-14.708-10.814-26.933-10.814-26.933-7.7896 15.002 2.2895 34.367 2.2895 34.367-12.096-3.4681-11.513-22.03-11.513-22.03 2.2102 15.275-8.4052 25.544-8.4052 25.544 3.5513-20.427-10.262-18.216-10.262-18.216-7.0723 11.17 2.2519 20.169 2.2519 20.169-19.062-11.281-21.673-20.119-21.673-20.119 8.342 19.385-8.2039 29.423-8.2039 29.423 7.3256-18.931-1.6296-16.434-1.6296-16.434-10.289 4.2448-4.8546 19.868-4.8546 19.868-11.439-15.536-6.2956-29.003-6.2956-29.003-11.154 6.3826 0.80024 24.453 0.80024 24.453-7.6969-5.2796-11.73-11.571-11.73-11.571 3.8474 12.284 1.3176 23.795 1.3176 23.795-1.9838-10.62-7.6043-20.175-7.6043-20.175-12.337 6.7777-1.6009 20.086-1.6009 20.086-5.7465-5.5363-9.7621-7.6288-9.7621-7.6288-1.6903 10.75-8.5395 13.952-8.5395 13.952 10.387-13.324-2.0454-12.808-2.0454-12.808-3.9698 6.2844-8.8848 5.6126-8.8848 5.6126 7.6186-5.141 6.7803-19.396 6.7803-19.396s-6.8694-2.6817-7.7592 12.809c0 0-2.2987-13.677 0.78307-17.657 0 0-7.0411 15.697-14.928 16.929 0 0 4.1534-3.4177 3.0634-9.0368"/>
		<path d="m111.26 111.22 30.51-13.739c7.1375-3.2141 22.878-10.857 21.321-1.1036l-9.5566 33.555-83.034 34.869 14.419-31.085c3.6959-7.9679 9.6113-14.964 26.34-22.497z"/>
		<path d="m141.31 35.775-30.051 75.445 30.51-13.739 16.92-64.134 4.9764-19.829c1.3688-5.4545 1.7162-12.341-2.7194-12.418-4.4355-0.076896-9.8578 7.8246-11.815 13.201z"/>
		<path d="m163.99 3.3813c1.2194 2.3179 5.429 4.14 4.5594 11.261l-18.702 78.987-8.0686 3.844c7.315-27.988 14.855-55.975 21.895-83.963 1.7398-7.9389 0.3157-10.129 0.3157-10.129z"/>
		<path d="m161.83 155.2 12.183-43.437c1.3567-4.8373-0.82446-8.6486-3.1934-10.924l-7.6205-7.3214c0.25637 3.1897-2.2107 10.452-4.5475 19.021-2.3191 8.5047-5.1036 17.372-5.1036 17.372z"/>
		<path d="m53.613 197.27-37.732 51.811c-15.136 19.609-6.5277 34.916-6.5277 34.916s2.424-20.573 13.605-18.427c0 0 9.0575 19.801 3.656 30.686 0 0 18.952-24.27 17.609-46.622 0 0 1.9433 21.142 11.999 33.593 0 0-2.8031-29.851 5.4469-38.124 0 0 15.203 15.999 11.724 32.755 0 0 13.403-21.44 4.1856-40.454 0 0 17.04 18.563 15.422 36.439 0 0 11.363-12.458 6.4499-45.713 0 0-2.0654 20.241 21.323 34.362 0 0-16.092-16.5-5.6268-38.151 0 0 6.8311 14.773 1.1398 33.899 0 0 16.329-17.79 18.848-37.482 0 0 13.66 13.12 11.494 29.32 0 0 4.0334-20.737-1.9231-35.881 0 0 6.0177 19.893 20.402 16.66 0 0-15.837-8.8064-12.014-24.513l1.9429-20.157-9.1794-28.025z"/>
		<path d="m44.19 241.38s8.0137-17.728 13.356-23.556c5.3426-5.8283 8.9854-17.728 8.9854-17.728"/>
		<path d="m64.834 236.28c6.071-10.442 6.0713-19.185 6.0713-19.185"/>
		<path d="m95.673 222.44s2.1855-11.899 5.3423-19.913c3.157-8.0139 3.6426-17.728 3.6426-17.728"/>
		<path d="m132.59 211.75s3.3999-24.77 5.0996-28.898c1.6998-4.1283 4.8569-17.485 4.8569-17.485"/>
		<path d="m121.65 172.17s-5.0996 9.9566-4.8569 15.056c0.24292 5.0998-1.2143 16.271-1.2143 16.271"/>
	</g>
	<g class="clr-dark" stroke="#1a1a1a">
		<path d="m147.28 233.45-1.5153 3.0376-2.0317-1.514c1.5978 3.3174 1.778 5.945 2.6006 8.923 1.8323-5.2741 1.406-10.569 0.9465-10.446z"/>
		<path d="m123.01 260.86-2.655 1.4237-0.99279-1.8333-1.2844 8.7474c2.8038-2.7897 3.7358-5.1795 4.9325-8.3378z"/>
		<path d="m57.081 269.85 2.9164 1.5028 2.4791-5.2675c0.82676 4.5546 1.3275 7.7444 4.3344 13.047-1.9897-0.58065-6.5855-4.2746-9.7296-9.2828z"/>
		<path d="m151.24 246.68-2.782 2.2509-1.8838-1.9026 0.55756 9.2132c1.7982-2.5466 3.2818-6.387 4.1089-9.5622z"/>
		<path d="m99.551 264.5 4.3841-0.022 0.81927-3.1909 3.029 9.3698c-3.2516-1.6811-6.3225-3.3716-8.2325-6.1572z"/>
		<path d="m37.77 288.36-2.655 1.4236-0.99278-1.8334-1.2844 8.7474c2.8038-2.7897 3.7358-5.1795 4.9325-8.3378z"/>
		<path d="m27.585 286.79-3.0043 0.22378-0.16341-2.0785c-1.2856 2.7195-3.3412 4.6688-5.3309 6.6842 3.5427-0.34938 6.1232-2.4286 8.4986-4.8296z"/>
		<path d="m153.46 227.55 4.5859 0.1558-1.3712-2.7963s7.0202 4.1023 7.2276 5.5546c0.23636 1.6544-7.8199 0.63116-10.442-2.9141z"/>
		<path d="m129.1 258.09 3.3824 2.1941 1.1532-3.3427 2.9987 9.2182c-2.8932-0.92835-7.1024-4.1733-7.5344-8.0697z"/>
		<path d="m124.53 247.01-4.2649 1.0158-1.5509-2.9065-0.72663 9.8206c1.774-1.0718 5.3456-4.7718 6.5422-7.9298z"/>
		<path d="m100.26 252.45-5.6119 3.4684-7.0734-4.7757c4.0337 6.4623 4.7643 14.34 5.6894 22.134 4.8761-8.6986 6.4459-17.495 6.9962-20.827z"/>
		<path d="m89.025 269.96-2.5353 2.1144-3.8533-3.5005c-0.18511 4.6253-0.68854 7.6318-1.8117 12.153 1.8896-0.8517 6.6339-7.7742 8.2003-10.767z"/>
		<path d="m79.706 261.77-2.8734 3.1617-4.3806-3.5926c1.5422 4.3644 1.6934 9.1126 2.3259 13.728 1.4393-1.4915 4.5825-9.9375 4.928-13.297z"/>
		<path d="m49.058 269.04 3.2878 2.7285 3.8347-4.17c-0.91634 4.5374-0.40165 9.26-0.3819 13.918-1.6338-1.2754-5.9279-9.1984-6.7405-12.476z"/>
		<path d="m36.677 279.38-4.079 3.2452-5.1109-5.0422c0.89658 5.3943 1.136 10.022 0.51476 16.633 2.0234-1.517 7.5491-10.938 8.6752-14.836z"/>
		<path d="m6.7153 270.6 1.5651 2.8834 5.0136-2.9592c-1.8796 4.2303-3.261 7.1489-3.7595 13.225-1.3179-1.5997-3.0382-7.2395-2.8193-13.149z"/>
		<path d="m66.763 271.09 2.8155 2.6128 2.7981-4.0271c-0.51965 4.5997-0.95897 7.7988 0.39365 13.743-3.299-3.7458-4.8911-8.4545-6.0073-12.329z"/>
		<path d="m39.012 285.32 3.969 0.97357 1.5534-4.2394c0.2999 4.2659 0.86251 4.8847 2.8828 9.3717-3.5407-2.3839-4.6455-3.3668-8.4053-6.1058z"/>
		<path d="m108.75 252.03 4.4146 1.6478 0.81926-3.1909 3.0291 9.3698c-3.1056-1.8693-6.0096-4.4769-8.2627-7.8267z"/>
	</g>
</svg>
