<svg width="201" height="56" version="1.1" viewBox="0 0 201.61 56.524" xmlns="http://www.w3.org/2000/svg">
	<g>
		<g id="JOE_S" transform="translate(-.752 .70675)" fill="#f5ead1" stroke="#f5ead1" aria-label="JOE'S">
			<path d="m7.51 23.523v6.972q0 1.428-0.798 2.226-0.784 0.784-2.184 0.784-1.512 0-2.394-0.868t-0.882-2.478h1.946q0 0.756 0.308 1.162 0.322 0.406 0.938 0.406 0.56 0 0.826-0.322 0.266-0.336 0.266-0.91v-6.972z"/>
			<path d="m17.002 23.383q1.386 0 2.506 0.644 1.134 0.644 1.778 1.806 0.658 1.148 0.658 2.604t-0.658 2.618q-0.644 1.162-1.778 1.806-1.12 0.644-2.506 0.644t-2.52-0.644q-1.12-0.644-1.778-1.806-0.644-1.162-0.644-2.618t0.644-2.604q0.658-1.162 1.778-1.806 1.134-0.644 2.52-0.644zm0 1.82q-0.868 0-1.526 0.392t-1.036 1.134q-0.364 0.728-0.364 1.708t0.364 1.722q0.378 0.728 1.036 1.12t1.526 0.392 1.526-0.392 1.022-1.12q0.378-0.742 0.378-1.722t-0.378-1.708q-0.364-0.742-1.022-1.134t-1.526-0.392z"/>
			<path d="m28.538 25.091v2.562h3.5v1.512h-3.5v2.66h3.92v1.582h-5.894v-9.884h5.894v1.568z"/>
			<path d="m38.45 22.221-0.182 2.982h-1.33l-0.182-2.982z"/>
			<path d="m49.874 30.705q0 0.756-0.378 1.4-0.378 0.63-1.12 1.022-0.742 0.378-1.806 0.378-1.05 0-1.876-0.35-0.826-0.364-1.33-1.036-0.49-0.672-0.56-1.568h2.1q0.07 0.602 0.476 1.008 0.42 0.392 1.106 0.392 0.616 0 0.938-0.322 0.336-0.336 0.336-0.854 0-0.462-0.266-0.756-0.266-0.308-0.672-0.49t-1.12-0.42q-0.924-0.308-1.512-0.602-0.588-0.308-1.008-0.882-0.406-0.574-0.406-1.498 0-1.274 0.91-2.002 0.924-0.742 2.436-0.742 1.568 0 2.492 0.756 0.938 0.756 1.064 2.016h-2.128q-0.084-0.532-0.448-0.868-0.364-0.35-0.994-0.35-0.546 0-0.882 0.294-0.336 0.28-0.336 0.826 0 0.434 0.252 0.728 0.266 0.28 0.658 0.462 0.406 0.182 1.092 0.406 0.952 0.336 1.54 0.63 0.602 0.294 1.022 0.882t0.42 1.54z"/>
		</g>
		<g id="PROJECTS" transform="translate(-.752 .70675)" fill="#f5ead1" stroke="#f5ead1" aria-label="PROJECTS">
			<path d="m113.87 29.739v3.668h-1.974v-9.884h3.598q1.75 0 2.632 0.84 0.896 0.84 0.896 2.282 0 1.414-0.924 2.254-0.91 0.84-2.604 0.84zm1.414-1.582q1.736 0 1.736-1.512 0-0.742-0.406-1.134t-1.33-0.392h-1.414v3.038z"/>
			<path d="m128.6 33.407-2.31-3.85h-0.868v3.85h-1.974v-9.884h3.766q1.722 0 2.618 0.84 0.91 0.84 0.91 2.212 0 1.12-0.63 1.876-0.616 0.756-1.792 1.008l2.464 3.948zm-3.178-5.208h1.624q1.694 0 1.694-1.498 0-0.714-0.42-1.106-0.406-0.406-1.274-0.406h-1.624z"/>
			<path d="m139.84 23.383q1.386 0 2.506 0.644 1.134 0.644 1.778 1.806 0.658 1.148 0.658 2.604t-0.658 2.618q-0.644 1.162-1.778 1.806-1.12 0.644-2.506 0.644t-2.52-0.644q-1.12-0.644-1.778-1.806-0.644-1.162-0.644-2.618t0.644-2.604q0.658-1.162 1.778-1.806 1.134-0.644 2.52-0.644zm0 1.82q-0.868 0-1.526 0.392t-1.036 1.134q-0.364 0.728-0.364 1.708t0.364 1.722q0.378 0.728 1.036 1.12t1.526 0.392 1.526-0.392 1.022-1.12q0.378-0.742 0.378-1.722t-0.378-1.708q-0.364-0.742-1.022-1.134t-1.526-0.392z"/>
			<path d="m155.02 23.523v6.972q0 1.428-0.798 2.226-0.784 0.784-2.184 0.784-1.512 0-2.394-0.868t-0.882-2.478h1.946q0 0.756 0.308 1.162 0.322 0.406 0.938 0.406 0.56 0 0.826-0.322 0.266-0.336 0.266-0.91v-6.972z"/>
			<path d="m161.85 25.091v2.562h3.5v1.512h-3.5v2.66h3.92v1.582h-5.894v-9.884h5.894v1.568z"/>
			<path d="m174.83 23.425q1.848 0 3.066 0.952t1.61 2.59h-2.072q-0.322-0.798-1.008-1.26-0.672-0.462-1.624-0.462-0.784 0-1.414 0.392t-0.98 1.12-0.35 1.708q0 0.966 0.35 1.694t0.98 1.12 1.414 0.392q0.952 0 1.624-0.462 0.686-0.462 1.008-1.26h2.072q-0.392 1.638-1.61 2.59t-3.066 0.952q-1.414 0-2.506-0.63-1.078-0.644-1.68-1.792-0.588-1.148-0.588-2.604 0-1.47 0.588-2.618 0.602-1.148 1.68-1.778 1.078-0.644 2.506-0.644z"/>
			<path d="m190.84 23.523v1.568h-2.73v8.316h-1.974v-8.316h-2.716v-1.568z"/>
			<path d="m201.86 30.705q0 0.756-0.378 1.4-0.378 0.63-1.12 1.022-0.742 0.378-1.806 0.378-1.05 0-1.876-0.35-0.826-0.364-1.33-1.036-0.49-0.672-0.56-1.568h2.1q0.07 0.602 0.476 1.008 0.42 0.392 1.106 0.392 0.616 0 0.938-0.322 0.336-0.336 0.336-0.854 0-0.462-0.266-0.756-0.266-0.308-0.672-0.49t-1.12-0.42q-0.924-0.308-1.512-0.602-0.588-0.308-1.008-0.882-0.406-0.574-0.406-1.498 0-1.274 0.91-2.002 0.924-0.742 2.436-0.742 1.568 0 2.492 0.756 0.938 0.756 1.064 2.016h-2.128q-0.084-0.532-0.448-0.868-0.364-0.35-0.994-0.35-0.546 0-0.882 0.294-0.336 0.28-0.336 0.826 0 0.434 0.252 0.728 0.266 0.28 0.658 0.462 0.406 0.182 1.092 0.406 0.952 0.336 1.54 0.63 0.602 0.294 1.022 0.882t0.42 1.54z"/>
		</g>
		<path d="m78.117 2.6498s-7.367-2.547-10.116-1.79c-6.057 2.187-5.858 3.571-6.505 3.495a4.387 4.387 0 0 0-4.462 2.731c-0.609 1.347-0.82 3.31-1.633 4.123a5.408 5.408 0 0 1-3.337 1.217s-2.6 1.881-2.743 3.306c-0.139 1.357 1.921 3.612 1.921 3.612s2.256 2.062 3.613 1.923c1.424-0.146 3.305-2.743 3.305-2.743a5.4 5.4 0 0 1 1.217-3.338c0.813-0.813 1.9-0.292 3.349-0.626a2.342 2.342 0 0 0 0.548-0.3c0.338 0.389 5.738 6.566 13.058 14.557l0.751-0.6a1.051 1.051 0 0 1 0.386-0.068l2.437-1.649h0.027a6.7 6.7 0 0 0 0.581-0.968l6e-3 -6e-3a5.1 5.1 0 0 0 0.446-1.374c-8.128-7.447-14.383-12.913-14.6-13.1a2.485 2.485 0 0 0 0.371-1.444c-0.08-0.647 1.722-4.212 5.234-5.264a27.89 27.89 0 0 1 5.918-0.567h0.606zm22.878 40.553c-4.5-4.5-9.255-9.037-13.794-13.283a4.855 4.855 0 0 0-1.782 0.5 6.592 6.592 0 0 0-0.974 0.587v0.033l-1.656 2.441a1.056 1.056 0 0 1-0.053 0.376l-0.8 1c4.288 4.588 8.885 9.408 13.442 13.965 2.506 2.507 9.863 9.689 12.387 7.164s-4.258-10.28-6.765-12.787z" fill="#f5ead1"/>
		<path d="m96.286 40.114c-3.243-3.225-6.876-6.656-10.392-9.9-0.149 0.056-0.3 0.121-0.466 0.2-0.066 0.033-0.133 0.065-0.188 0.1 5.188 4.985 10.614 10.271 14.416 14.163 1.3 1.329 3.78 4.1 3.78 4.1a22.179 22.179 0 0 0-2.777-4.189c-1.325-1.415-2.8-2.924-4.368-4.483zm-15.69-14.72c-6.058-5.456-10.774-9.513-10.774-9.513s4.66 4.374 10.537 9.976c0.053-0.1 0.106-0.2 0.171-0.327l6e-3 -6e-3c0.026-0.044 0.04-0.086 0.066-0.13z" fill="#1a1a1a"/>
		<path d="m53.151 13.058a8.3 8.3 0 0 1 2.632 1.68 9.274 9.274 0 0 1 1.68 2.632 9.2 9.2 0 0 0-4.312-4.312z" fill="#1a1a1a"/>
		<path d="m61.698 5.3488a25.173 25.173 0 0 1 2.132 1.736 13.374 13.374 0 0 1 1.876 2.274c0.24 0.339-0.213 1.335-0.213 1.335s0.357-0.924 0.143-1.266a13.21 13.21 0 0 0-1.884-2.266c-0.641-0.647-2.054-1.813-2.054-1.813z" fill="#1a1a1a"/>
		<path d="m68.368 1.6198a9.892 9.892 0 0 0-2.943 1 24.342 24.342 0 0 0-3.165 1.96 12.906 12.906 0 0 1 3.144-2.075 15.958 15.958 0 0 1 2.521-0.987 20.97 20.97 0 0 1 3.658 0.068 27.241 27.241 0 0 0-3.215 0.035z" fill="#1a1a1a"/>
		<path d="m104.64 0.70675-22.45 22.453a5.6 5.6 0 0 1-0.6 2.729 8.853 8.853 0 0 1-0.878 1.461l-0.1-0.076-2.7 1.838c-0.028-0.1-0.048-0.171-0.048-0.171l-3.634 2.908-3.127 1.8s0 0.464-2.866 3.326c-2.706 2.706-9.161 6.975-9.161 6.975a17.112 17.112 0 0 0-2.791 2.8c-0.689 1.09-1.514 2.369-1.3 3.642 0.218 1.309 2.482 3.12 2.482 3.12s1.8 2.258 3.113 2.476c1.272 0.211 2.558-0.613 3.648-1.3a16.957 16.957 0 0 0 2.791-2.791s4.268-6.456 6.974-9.162c2.862-2.862 3.326-2.867 3.326-2.867l1.8-3.12 2.908-3.642s-0.073-0.015-0.171-0.041l1.838-2.709s-0.035-0.04-0.082-0.1a8.851 8.851 0 0 1 1.467-0.878 5.606 5.606 0 0 1 2.729-0.6l22.451-22.453-2.8-2.805z" fill="#f5ead1" stroke="#1a1a1a"/>
		<path d="m76.188 31.094-2.195 1.7-2.347 1.418s0 0.468-2.864 3.331c-2.706 2.706-9.163 6.976-9.163 6.976a16.98 16.98 0 0 0-2.791 2.791c-0.69 1.09-1.181 1.71-0.97 2.983a18.07 18.07 0 0 1 1.38-2.573 13.936 13.936 0 0 1 2.824-2.759c3.078-2.292 5.3-3.351 9.2-6.934a42.7 42.7 0 0 0 2.931-3.264l2.18-1.584z" fill="#1a1a1a"/>
		<path d="m77.276 29.946a14.129 14.129 0 0 0 0.811 1.513 9.628 9.628 0 0 0 0.909 1.143 2.694 2.694 0 0 1-1.166-0.885 8.193 8.193 0 0 1-0.922-1.448z" fill="#1a1a1a"/>
		<path d="m104.44 2.0718 0.6 0.6-22.285 22.182c0.12752-0.5591 0.15358-0.82883 0.15074-1.2968z" fill="#1a1a1a"/>
		<path d="m104.07 2.4462 0.6-0.6 3.916 3.916-0.6 0.6z" fill="#1a1a1a"/>
		<path d="m81.067 28.739a5.171 5.171 0 0 0-0.454-0.383l-1.915 1.073a10.11 10.11 0 0 0 1.213 1.575 9.731 9.731 0 0 0 1.575 1.214l1.073-1.915a5.113 5.113 0 0 0-0.452-0.52 2.53 2.53 0 0 0-0.667-0.307 2.465 2.465 0 0 0-0.306-0.666c-0.019-0.023-0.042-0.045-0.066-0.07z" fill="#1a1a1a"/>
	</g>
</svg>
