<svg class="svg odd" viewBox="0 0 215.7 300">
	<g class="clr-primary">
		<path class="outer-clip-board" d="m12.767 17.163c-6.3126 0-11.394 5.0844-11.394 11.397v258.67c0 6.3126 5.0817 11.394 11.394 11.394h168.06c6.3126 0 11.394-5.0818 11.394-11.394v-258.67c0-6.3126-5.0817-11.397-11.394-11.397h-55.534c0.21037 0.68661 0.3379 1.3786 0.3379 2.0595v13.73h-56.296v-13.73c0-0.68088 0.12752-1.3729 0.3379-2.0595z"/>
		<path class="inner-clip-board" d="m21.148 31.09c-5.6879 0-10.268 4.5801-10.268 10.268v233.08c0 5.6879 4.5801 10.265 10.268 10.265h151.29c5.6879 0 10.268-4.5774 10.268-10.265v-233.08c0-5.6879-4.58-10.268-10.268-10.268h-46.817v1.8611h-56.293v-1.8611z"/>
	</g>
	<g class="clr-dark">
		<path class="line-1" d="m40.671 68.577h112.26"/>
		<path class="line-2" d="m40.671 98.203h112.26"/>
		<path class="line-3" d="m40.671 127.83h112.26"/>
		<path class="line-4" d="m40.671 157.46h112.26"/>
		<path class="line-5" d="m40.671 187.09h112.26"/>
		<path class="line-6" d="m40.671 216.7h112.26"/>
	</g>
	<g class="clr-tertiary">
		<path class="clip" d="m69.335 32.95v-13.729c0-4.5306 5.0804-9.611 9.611-9.611h13.457l0.28833-3.8072c0.16428-2.1692 2.6182-4.4298 4.7931-4.4294 2.175 4.119e-4 4.624 2.2612 4.789 4.4294l0.2897 3.8072h13.455c4.5306 0 9.611 5.0804 9.611 9.611v13.729z"/>
		<path class="pen" d="m152.97 210.26 1.0365-12.987 52.312-123.24 7.5844 3.2194-52.312 123.24z"/>
	</g>
</svg>
