<svg version="1.1" viewBox="0 0 41.732 41.732" xmlns="http://www.w3.org/2000/svg" xmlns:xlink="http://www.w3.org/1999/xlink">
	<g transform="matrix(3.7794 0 0 3.7794 .00023625 -.0011812)">
		<g>
			<path d="m8.248 10.245c-0.38908 0.25587-0.85348-0.0027-1.3155 0.11489-0.46207 0.11761-0.89834 0.61589-1.4118 0.61589s-0.94969-0.49828-1.4118-0.61589c-0.46207-0.11761-0.92643 0.14096-1.3155-0.11489-0.38912-0.25585-0.35222-0.94968-0.69956-1.297-0.34734-0.34733-1.0412-0.31037-1.297-0.69951-0.25579-0.38914 0.0031-0.85346-0.11451-1.3155-0.1176-0.46209-0.61627-0.89829-0.61627-1.4118 0-0.51347 0.49867-0.94966 0.61627-1.4118s-0.14129-0.92643 0.11451-1.3155c0.2558-0.38912 0.94961-0.35201 1.297-0.69934s0.31041-1.0413 0.69956-1.2972c0.38915-0.25585 0.85347 0.00289 1.3155-0.11472 0.46208-0.11761 0.89832-0.61606 1.4118-0.61606 0.51344 0 0.94968 0.49845 1.4118 0.61606 0.46208 0.11761 0.92643-0.14115 1.3155 0.11472s0.35194 0.94983 0.6993 1.2972c0.34735 0.34736 1.0414 0.31021 1.2972 0.69934 0.25586 0.38913-0.0029 0.85347 0.11468 1.3155 0.1176 0.46208 0.6161 0.89831 0.6161 1.4118 0 0.51345-0.4985 0.94968-0.6161 1.4118-0.11761 0.46208 0.14117 0.9264-0.11468 1.3155-0.25585 0.38915-0.94989 0.35216-1.2972 0.69951-0.34734 0.34736-0.31021 1.0411-0.6993 1.297z" fill="#d8ad4f" stroke="#1a1a1a" stroke-linejoin="round" stroke-width=".13229"/>
			<circle cx="5.9342" cy="5.587" r="3.6768" fill="#d29f32" style="paint-order:normal"/>
			<path d="m8.8368 4.259a3.548 3.548 0 0 1 0.23194 1.2618 3.548 3.548 0 0 1-3.548 3.548 3.548 3.548 0 0 1-3.548-3.548 3.548 3.548 0 0 1 3.548-3.548 3.548 3.548 0 0 1 1.8063 0.49423" fill="none" stroke="#1a1a1a" stroke-linejoin="round" stroke-width=".066146"/>
			<circle cx="5.5532" cy=".69377" r=".26681" fill="#d29f32" style="paint-order:normal"/>
			<circle cx="5.4971" cy=".62621" r=".26681" fill="none" stroke="#1a1a1a" stroke-linejoin="round" stroke-width=".066146" style="paint-order:normal"/>
			<path d="m5.5232 0.65233-0.02614 0.14908-0.02625-0.14908-0.14896-0.026143 0.14896-0.024143 0.02625-0.15104 0.02614 0.15104 0.14908 0.024143z" fill="#1a1a1a"/>
			<circle cx="5.5532" cy="10.483" r=".26681" fill="#d29f32" style="paint-order:normal"/>
			<circle cx="5.4971" cy="10.416" r=".26681" fill="none" stroke="#1a1a1a" stroke-linejoin="round" stroke-width=".066146" style="paint-order:normal"/>
			<path d="m5.5232 10.442-0.026136 0.14908-0.026233-0.14908-0.14896-0.02614 0.14896-0.02414 0.026233-0.15104 0.026136 0.15104 0.14909 0.02414z" fill="#1a1a1a"/>
			<circle cx="10.455" cy="5.5225" r=".26681" fill="#d29f32" style="paint-order:normal"/>
			<circle cx="10.358" cy="5.5225" r=".26681" fill="none" stroke="#1a1a1a" stroke-linejoin="round" stroke-width=".066146" style="paint-order:normal"/>
			<path d="m10.384 5.5486-0.02614 0.14908-0.02625-0.14908-0.14896-0.02614 0.14896-0.02414 0.02625-0.15104 0.02614 0.15104 0.14908 0.02414z" fill="#1a1a1a"/>
			<circle cx=".70312" cy="5.4729" r=".26681" fill="#d29f32" style="paint-order:normal"/>
			<circle cx=".60152" cy="5.4729" r=".26681" fill="none" stroke="#1a1a1a" stroke-linejoin="round" stroke-width=".066146" style="paint-order:normal"/>
			<path d="M 0.62764,5.499 0.6015,5.64808 0.57525,5.499 0.42629,5.47286 0.57525,5.44872 0.6015,5.29768 0.62764,5.44872 0.77672,5.47286 Z" fill="#1a1a1a"/>
			<path d="m3.5036 5.4734c-0.094689 0-0.18946 0.036308-0.26229 0.10915-0.14568 0.14568-0.14345 0.37883 0 0.52671l0.76785 0.79154 0.13399 0.053844-0.69309-0.80754c-0.10575-0.12321-0.16067-0.21345-0.1731-0.31203-0.012436-0.098573 0.043029-0.13942 0.10304-0.18591 0.060016-0.046492 0.10132-0.10122 0.30048-0.064232-0.03833-0.015227-0.14325-0.10619-0.17687-0.11152z" fill="#d8ad4f"/>
			<path d="m7.312 4.274c-0.091104 0-0.18106 0.033418-0.25087 0.10323l-1.7639 1.7878s0.57021-0.50801 1.9936-1.7878c0.039959-0.039959 0.086532-0.067843 0.13622-0.084611-0.037135-0.012534-0.076095-0.018616-0.11507-0.018615z" fill="#d8ad4f"/>
			<path transform="matrix(1.1282,0,0,1.1282,13.406,-3.2792)" d="m-5.3926 6.6523c-0.080752 0-0.16078 0.029921-0.22266 0.091797l-2.0254 2.0254-0.93359-0.93164c-0.12913-0.12913-0.33572-0.12913-0.46484 0-0.12913 0.12913-0.12913 0.33767 0 0.4668l1.1445 1.1445c0.0017 0.00172 0.00406 0.00419 0.00586 0.00586 0.0015 0.00156 0.00231 0.00236 0.00391 0.00391 7.94e-4 7.409e-4 0.00311 0.00124 0.00391 0.00195 0.12312 0.1206 0.31829 0.1206 0.44141 0 0.0042-0.00378 0.00774-0.00768 0.011719-0.011719l2.2578-2.2578c0.12375-0.12375 0.12375-0.32351 0-0.44727-0.061876-0.061876-0.1419-0.091797-0.22266-0.091797z" fill="none" stroke="#1a1a1a" stroke-linecap="round" stroke-linejoin="round" stroke-width=".11726" xlink:href="#rect1772"/>
		</g>
	</g>
</svg>
