<svg class="svg even" version="1.1" viewBox="0 0 300 64.548" xmlns="http://www.w3.org/2000/svg">
	<defs>
		<filter id="filter24735" x="-.031092" y="-.26347" width="1.0622" height="1.5269" color-interpolation-filters="sRGB">
			<feGaussianBlur stdDeviation="1.4365846"/>
		</filter>
	</defs>
	<g class="clr-dark" transform="matrix(0 -1 1 0 -.0054744 65.211)" fill="none">
		<path class="shadow" transform="matrix(0,1.5219,-1.3308,0,201.94,-64.539)" d="m217.65 137.58a5.4256 55.565 86.208 0 1-55.085 9.0882 5.4256 55.565 86.208 0 1-55.802-1.7391 5.4256 55.565 86.208 0 1 55.085-9.0882 5.4256 55.565 86.208 0 1 55.803 1.7391z" fill="none" filter="url(#filter24735)" opacity=".79477"/>
	</g>
	<g class="bottom-faces clr-secondary" transform="matrix(.35226 0 0 .35213 .55463 .54963)" stroke-linejoin="bevel">
		<path class="bottom-front-face" d="m1.2477 97.981 1.8338 10.148-1.8338 53.213 37.077 2.2078 26.539-4.2933 38.247 4.2933h166.17l3.3117-13.263 4.2926 13.263h29.958v-47.809l-7.7571-17.758h-109.23l-18.441 2.9271-14.733-2.9271h-50.054l-1.6558 4.4271-0.0556 19.609-7.4604-19.609-0.97571-4.4271z"/>
		<path class="bottom-top-face" d="m306.85 163.55 82.155-27.232 93.085-33.087 79.423-22.159 61.471-18.646v-22.987l-76.592 14.527-53.958 12.575-99.23 16.478-76.592 14.527-9.7575 18.193z"/>
		<path class="bottom-side-face" d="m1.2477 97.981 126.35-14.314 155.63-14.314 97.084-14.314 126.35-14.314 14.05 2.0203 10.343-2.0203 37.468 1.6645 20.685-2.6287 33.76-0.32124-315.35 59.827-8.5368-1.2852-109.23-4.91e-4 -18.441 2.9271-14.733-2.9271h-50.054l-1.6558 4.4271-0.0556 19.609-7.4604-19.609-0.97571-4.4271z"/>
	</g>
	<g class="bottom-lines clr-dark" transform="matrix(.35226 0 0 .35213 .55463 .54963)">
		<path class="bottom-line-1" d="m171.43 100.89 110.45-17.368-123.39 14.733z"/>
		<path class="bottom-line-2" d="m283.04 97.187 106.94-20.685-138.55 21.076z"/>
		<path class="bottom-line-3" d="m327.05 68.237 120.88-16.007-72.858 10.625z"/>
		<path class="bottom-line-4" d="m364.06 74.171 67.518-11.318-58.153 10.343z"/>
		<path class="bottom-line-5" d="m434.1 65.195 67.518-11.318-58.153 10.343z"/>
		<path class="bottom-line-6" d="m520.72 42.742-33.868 6.9616 52.797-8.5602-8.5863-0.42193z"/>
		<path class="bottom-line-7" d="m568.53 42.387-44.721 8.6037 72.306-10.763-6.8992-0.46928z"/>
	</g>
	<g class="bottom-chips clr-primary" transform="matrix(.35226 0 0 .35213 .55463 .54963)" stroke-linejoin="bevel">
		<path class="bottom-corner-chip" d="m316.61 97.527-8.976 1.7206-8.5368-1.2851 7.7556 17.757z"/>
		<path class="bottom-top-chip" d="m96.487 97.225 0.97571 5.1834 7.4604 19.609 0.0556-19.609 1.6558-4.4271 28.819-4.6271z"/>
		<path class="bottom-bottom-chip" d="m269.32 163.29 3.2984-13.014 2.2681 9.897z"/>
	</g>
	<g class="top-faces clr-secondary" transform="matrix(.35226 0 0 .35213 .55463 .54963)" stroke-linejoin="bevel">
		<path class="top-top-face" d="m215.23 1.241 127.55 16.016 157.52 23.647 97.579 8.386 127.55 16.016 14.64 6.0511 10.333 0.30775 38.568 11.734 20.844 2.2847 34.522 8.4208-315.28-11.479-8.9026-3.7447-111.83-28.475-18.509-1.3468-15.454-7.3009-51.244-13.048-1.1346 4.8017 2.426 23.166-10.121-25.125-1.5595-5.488z"/>
		<path class="top-front-face" d="m215.23 1.241 3.1622 12.474 4.8602 62.427 38.239 12.275 26.627 1.8431 39.702 15.046 170.12 43.315 1.7111-14.816 6.0742 16.798 30.671 7.8096-6.0538-56.52-10.19-23.015-111.83-28.474-18.509-1.3468-15.454-7.3009-51.244-13.048-1.1347 4.8017 2.426 23.166-10.121-25.125-1.5595-5.488z"/>
		<path class="top-side-face" d="m536.41 158.4 80.663-10.776 91.109-14.849 78.505-5.491 60.572-6.0182-2.9106-27.175-76.577-2.7933-53.648 0.80069-99.503-6.3871-76.577-2.7933-7.686 18.962z"/>
	</g>
	<g class="top-lines clr-dark" transform="matrix(.35226 0 0 .35213 .55463 .54963)">
		<path class="top-line-1" d="m389.81 49.057 110.88 8.2609-124.46-14.747z"/>
		<path class="top-line-2" d="m503.6 73.774 106.86 3.4235-139.18-11.203z"/>
		<path class="top-line-3" d="m544.99 51.007 121.73 12.588-73.244-6.4321z"/>
		<path class="top-line-4" d="m583.65 67.678 67.692 4.2208-58.225-2.9326z"/>
		<path class="top-line-5" d="m654.21 75.312 67.692 4.2208-58.225-2.9326z"/>
		<path class="top-line-6" d="m740.08 71.355-33.792-0.59906 52.968 3.6439-8.844-2.737z"/>
		<path class="top-line-7" d="m788.98 83.381-44.695-1.4869 72.662 6.1248-7.1229-2.3532z"/>
	</g>
	<g class="top-corner-chips clr-primary" transform="matrix(.35226 0 0 .35213 .55463 .54963)">
		<path class="top-corner-chip" d="m538.03 82.928-8.9718-0.30575-8.9022-3.7445 10.188 23.013z"/>
		<path class="top-top-chip" d="m312.63 25.172 1.6552 6.3818 10.121 25.125-2.4261-23.166 1.1347-4.8017 28.918 2.0423z"/>
		<path class="top-bottom-chip" d="m497.93 148.35 1.729-14.524 3.5752 12.291z"/>
	</g>
</svg>
